<svg width="124" height="116" viewBox="0 0 124 116" fill="none" xmlns="http://www.w3.org/2000/svg">
<path d="M62.5174 69.4679C65.6455 69.4679 68.8827 68.2481 71.5167 66.0768C74.1507 63.9055 75.9657 60.9606 76.5626 57.8899C77.1595 54.8192 76.4893 51.8743 74.6994 49.703C72.9095 47.5317 70.1466 46.3119 67.0185 46.3119C66.2444 46.3119 65.4637 46.3866 64.6871 46.5319C63.0485 46.8385 61.2842 45.4705 61.6023 43.834L62.9831 36.7301C63.1324 35.962 63.7148 35.3448 64.4833 35.1972C66.0771 34.8913 67.6801 34.7339 69.269 34.7339C75.5253 34.7339 81.0511 37.1736 84.6309 41.5162C88.2106 45.8587 89.5511 51.7486 88.3573 57.8899C87.1635 64.0312 83.5334 69.9211 78.2654 74.2636C72.9974 78.6062 66.5232 81.0459 60.2669 81.0459C58.9184 81.0459 57.6039 80.9325 56.3355 80.7112C55.2998 80.5305 54.668 79.5096 54.8686 78.4776L56.361 70.7997C56.6301 69.4153 58.2403 68.7213 59.6016 69.0899C60.5209 69.3388 61.4998 69.4679 62.5174 69.4679Z" fill="#FF280C"/>
<path d="M51.8329 94.0956C52.0404 93.0283 53.0622 92.3284 54.1428 92.4488C54.5608 92.4954 54.9819 92.5344 55.4058 92.5658C56.0638 92.6145 56.7248 92.6445 57.3882 92.6561C57.598 92.6347 57.8076 92.6238 58.0163 92.6238C58.2254 92.6238 58.4312 92.6347 58.633 92.6562C66.8914 92.5148 75.4292 89.5574 82.7507 84.2395C91.0312 78.225 97.0775 69.6838 99.5597 60.4948C99.7637 59.7396 99.9426 58.9838 100.096 58.2285C100.111 58.1161 100.13 58.0032 100.152 57.8899C100.173 57.7794 100.198 57.6692 100.226 57.5595C100.882 53.9899 100.974 50.4412 100.493 47.0398C99.8795 42.7068 98.3483 38.6976 95.9864 35.2411C93.6244 31.7846 90.4781 28.9485 86.7269 26.8948C82.9757 24.8411 78.6932 23.6099 74.1239 23.2716C72.2315 23.1315 70.3052 23.1457 68.3644 23.3119C66.9793 23.4305 65.8042 22.216 66.0695 20.8514L67.6809 12.5608L68.998 5.78899C69.2964 4.25365 70.204 2.7812 71.521 1.69556C72.838 0.60991 74.4565 0 76.0206 0C77.5847 0 78.9661 0.60991 79.8611 1.69556C80.756 2.7812 81.0911 4.25365 80.7927 5.78899L79.4862 12.5103C84.6285 13.1384 89.5038 14.6388 93.8857 16.9955C103.949 22.4077 110.6 31.9002 112.398 43.4173C112.839 46.2451 112.981 49.1534 112.826 52.1009H118.969C120.533 52.1009 121.915 52.7108 122.81 53.7965C123.705 54.8821 124.04 56.3546 123.741 57.8899C123.443 59.4252 122.535 60.8977 121.218 61.9833C119.901 63.069 118.283 63.6789 116.719 63.6789H110.728C109.074 69.0259 106.501 74.2326 103.121 79.0632C99.2778 84.5564 94.4664 89.4538 88.9663 93.4713C83.4663 97.4887 77.387 100.546 71.0814 102.466C67.9351 103.425 64.7638 104.09 61.6135 104.457L60.5379 109.991C60.2394 111.526 59.3319 112.999 58.0149 114.084C56.6979 115.17 55.0793 115.78 53.5153 115.78C51.9512 115.78 50.5697 115.17 49.6748 114.084C48.7799 112.999 48.4448 111.526 48.7432 109.991L51.8329 94.0956Z" fill="#FF280C"/>
<path d="M23.2059 21.5349L26.9491 17.6759C32.4774 19.3423 39.5666 22.6313 43.0141 25.3501L38.8644 29.6915C35.7296 26.9727 28.8256 23.4206 23.2059 21.5349ZM23.0391 11.3611H53.9979L53.0602 16.1849H22.1015L23.0391 11.3611ZM52.2556 11.3611H57.7058C57.7058 11.3611 57.3798 12.8082 57.1626 13.466C54.4443 24.6923 52.9409 29.2092 51.2853 30.8317C50.117 32.0157 49.0043 32.4543 47.5768 32.6735C46.2919 32.8489 44.2369 32.8489 42.0649 32.7612C42.2654 31.2702 42.1299 29.2092 41.5454 27.8497C43.3068 27.9813 44.8618 28.0251 45.7191 27.9813C46.3807 28.0251 46.7998 27.9374 47.3488 27.4112C48.332 26.4903 49.6799 22.5435 52.0937 12.1943L52.2556 11.3611ZM35.4428 13.5099H41.429C38.4818 22.2366 34.1969 30.2616 19.5042 34.603C19.2323 33.2436 18.2396 31.2264 17.2465 30.1301C30.3391 26.6657 33.1813 20.0878 35.4428 13.5099ZM26.4238 36.0063H31.74L30.2312 43.7683C29.9755 45.0838 30.2903 45.3031 32.4793 45.3031C33.4621 45.3031 37.572 45.3031 38.8676 45.3031C40.7439 45.3031 41.1312 44.6892 42.2091 40.5232C43.1278 41.3125 45.208 42.1019 46.5779 42.4088C44.7762 48.4605 43.0568 49.9515 38.4108 49.9515C37.1599 49.9515 32.1118 49.9515 30.995 49.9515C25.1427 49.9515 23.9945 48.5044 24.898 43.856L26.4238 36.0063ZM30.056 33.6383L34.2968 30.437C36.9554 31.928 40.1051 34.3399 41.4277 36.2694L36.8591 39.7777C35.7153 37.8481 32.689 35.2608 30.056 33.6383ZM44.2865 37.1904L49.1248 34.8223C51.7637 38.0236 54.3511 42.4088 55.052 45.6978L49.7073 48.3728C49.2127 45.1716 46.8466 40.567 44.2865 37.1904ZM20.4737 36.0502L25.0001 37.585C23.0565 41.8387 20.4959 46.0486 16.6615 48.7675L12.7653 45.8293C16.1485 43.5929 18.7855 39.9092 20.4737 36.0502ZM9.08643 70.731H49.2926L48.389 75.3794H8.18287L9.08643 70.731ZM14.6352 62.1797H40.1885L39.302 66.7404H13.7487L14.6352 62.1797ZM17.8606 86.0356H37.8297L37.0625 89.9823H17.0935L17.8606 86.0356ZM16.5224 92.9205H36.4914L35.6305 97.3496H15.6614L16.5224 92.9205ZM26.0988 57.4436H31.3703L28.2845 73.3183H23.013L26.0988 57.4436ZM45.5079 58.7153L49.6575 61.0395C38.5744 73.0113 23.2357 81.8257 7.74708 87.0442C7.34327 85.904 6.16123 83.7114 5.38299 82.6589C20.7884 78.0982 35.5505 69.7224 45.5079 58.7153ZM16.257 78.8876H42.6143L38.804 98.4898H33.2199L36.1948 83.1852H20.7824L17.7734 98.6652H12.4126L16.257 78.8876Z" fill="#F2F2F2"/>
</svg>
