<svg width="1920" height="1145" viewBox="0 0 1920 1145" fill="none" xmlns="http://www.w3.org/2000/svg">
<path d="M2813.7 1144.49H-78M2813.7 510.811L-78 510.811M2733.9 -44.9921V1145.01M2813.7 827.944H-78M2412.6 -44.9921V1145.01M2813.7 194.268L-78 194.268M2813.7 986.216H-78M2251.95 -44.9921V1145.01M2813.7 352.54H-78M2813.7 669.083H-78M2573.25 -44.9921V1145.01M2813.7 35.4073L-78 35.4074M2813.7 1065.94H-78M2171.62 -44.9922V1145.01M2813.7 432.268H-78M2814.22 -44.9921V1145.01M2813.7 748.812L-78 748.811M2492.92 -44.9921V1145.01M2813.7 115.136L-78 115.136M2813.7 907.083H-78M2332.27 -44.9921V1145.01M2813.7 273.407H-78M2813.7 590.54H-78M2653.57 -44.9921V1145.01M2813.7 -43.1361L-78 -43.136M2010.97 -44.9922V1145.01M1288.05 -44.9921V1145.01M565.122 -44.9921V1145.01M1689.67 -44.9922V1145.01M966.747 -44.9921V1145.01M243.822 -44.9921L243.822 1145.01M1529.02 -44.9922V1145.01M806.097 -44.9921V1145.01M83.1712 -44.9921L83.1712 1145.01M1850.32 -44.9922V1145.01M1127.4 -44.9921V1145.01M404.472 -44.9921L404.472 1145.01M1448.7 -44.9922V1145.01M725.771 -44.9921V1145.01M2.84515 -44.9921L2.84514 1145.01M2091.3 -44.9922V1145.01M1368.37 -44.9922V1145.01M645.447 -44.9921V1145.01M1770 -44.9922V1145.01M1047.07 -44.9921V1145.01M324.146 -44.9921L324.146 1145.01M1609.35 -44.9922V1145.01M886.421 -44.9921V1145.01M163.496 -44.9921L163.496 1145.01M1930.65 -44.9922V1145.01M1207.72 -44.9921V1145.01M484.796 -44.9921V1145.01" stroke="url(#paint0_radial_577_2277)" stroke-width="1.04167"/>
<defs>
<radialGradient id="paint0_radial_577_2277" cx="0" cy="0" r="1" gradientUnits="userSpaceOnUse" gradientTransform="translate(925.5 607) rotate(180) scale(883 478.927)">
<stop stop-color="#C52D18"/>
<stop offset="0.938611" stop-color="#C52D18" stop-opacity="0"/>
</radialGradient>
</defs>
</svg>
