<svg width="1012" height="101" viewBox="0 0 1012 101" fill="none" xmlns="http://www.w3.org/2000/svg">
<g clip-path="url(#clip0_577_2278)">
<path d="M999.84 33.6395L812.77 35.2995C809.59 35.3295 806.71 36.6095 804.58 38.6695C803.23 16.7795 798.8 0.549541 793.68 0.609541C788.84 0.669541 784.87 15.3195 783.66 35.4895L769.3 35.7195L769.32 37.9095C768.92 37.7395 768.45 37.6295 767.95 37.6295C757.53 37.6195 745.68 37.6095 732.55 37.6195C730.64 37.6195 728.7 37.6195 726.73 37.6195C687.75 37.6495 638.2 37.7895 581.16 38.2095C527.93 38.5995 485.22 38.7695 450.04 38.7795C446.15 38.7795 442.35 38.7795 438.65 38.7795C351.74 38.7095 190.462 37.5795 148.842 36.2195C110.282 34.9595 69.642 32.8795 69.642 32.8795C60.512 32.5495 51.382 32.2195 42.252 31.8995C62.862 43.9795 83.472 56.0495 104.072 68.1295C156.442 68.8595 331.57 69.1095 383.94 68.8695C402.38 68.7895 420.82 68.6295 439.26 68.4295C454.48 68.2595 469.69 68.0595 484.91 67.7995C492.6 67.6595 502.22 67.4795 520.08 67.1495C534.23 66.8895 554.25 66.5495 586.96 66.0795C639.9 65.3095 688.12 65.2295 726.58 65.1495C742.77 65.1095 757.24 65.0695 769.6 64.9795V65.9195L783.92 65.6895C785.49 85.9495 789.74 100.62 794.6 100.56C799.71 100.5 803.84 84.1895 804.8 62.2795C806.97 64.2895 809.87 65.5295 813.05 65.4995L1000.12 63.8395C1006.72 63.7795 1012.07 58.3295 1012.01 51.7295L1011.95 45.5395C1011.89 38.9395 1006.44 33.5895 999.84 33.6495V33.6395Z" fill="black"/>
<path d="M834.389 45.5337H838.911V47.2841H834.389V45.5337ZM834.389 48.4301H838.911V50.1805H834.389V48.4301ZM835.597 40.1783L838.473 40.4908C838.015 41.5953 837.515 42.5955 837.119 43.304L834.785 42.9289C835.077 42.1162 835.431 40.991 835.597 40.1783ZM832.972 42.5121H839.015V44.4084H835.202V52.4519H832.972V42.5121ZM838.244 42.5121H840.536V57.2238C840.536 58.3282 840.328 58.9534 839.64 59.3285C838.932 59.7244 837.973 59.7661 836.556 59.7661C836.473 59.1409 836.118 58.1198 835.806 57.5572C836.66 57.5989 837.556 57.5781 837.848 57.5781C838.14 57.5572 838.244 57.4739 838.244 57.1821V42.5121ZM831.284 51.8268C833.118 51.66 835.806 51.3892 838.411 51.0766L838.494 53.0979C836.077 53.4521 833.555 53.7647 831.597 54.0147L831.284 51.8268ZM839.39 48.451L841.641 49.1386C839.682 53.2854 836.389 56.5778 832.68 58.5783C832.347 58.099 831.534 57.1613 831.034 56.7237C834.681 55.0358 837.744 52.0976 839.39 48.451ZM841.12 45.1586H850.893V47.4716H841.12V45.1586ZM846.392 40.3241H848.871V56.9112C848.871 58.2032 848.6 58.87 847.809 59.2659C847.017 59.6827 845.871 59.7869 844.162 59.7661C844.058 59.0992 843.599 57.974 843.245 57.328C844.391 57.3905 845.516 57.3697 845.891 57.3697C846.267 57.3488 846.392 57.2446 846.392 56.8904V40.3241ZM841.724 49.8471L843.808 49.0136C844.704 50.4723 845.558 52.3685 845.808 53.6605L843.537 54.5982C843.328 53.3479 842.557 51.3683 841.724 49.8471Z" fill="#FFEFCC"/>
<path d="M869.866 40.2199L871.679 42.2829C867.386 43.3873 861.385 43.9083 856.279 44.075C856.217 43.4498 855.904 42.4288 855.675 41.887C860.697 41.6786 866.448 41.1368 869.866 40.2199ZM855.862 46.1379H872.345V48.5343H855.862V46.1379ZM854.425 50.9932H873.575V53.4313H854.425V50.9932ZM862.718 43.1581H865.323V56.8487C865.323 58.3282 864.948 58.995 863.948 59.3701C862.947 59.766 861.426 59.8286 859.301 59.8077C859.134 59.0992 858.655 57.974 858.28 57.328C859.822 57.3905 861.572 57.3697 862.051 57.3697C862.531 57.3697 862.718 57.2238 862.718 56.807V43.1581Z" fill="#FFEFCC"/>
<path d="M943.625 45.5011L945.02 43.6688C947.747 44.46 951.35 46.0217 953.203 47.3127L951.662 49.3741C949.955 48.0831 946.415 46.3965 943.625 45.5011ZM942.625 40.6704H957.055V42.9608H942.625V40.6704ZM956.243 40.6704H958.783C958.783 40.6704 958.762 41.3575 958.721 41.6698C958.471 47.0003 958.179 49.145 957.555 49.9154C957.117 50.4776 956.639 50.6859 955.993 50.79C955.41 50.8733 954.452 50.8733 953.432 50.8316C953.39 50.1237 953.14 49.145 952.745 48.4995C953.578 48.562 954.306 48.5828 954.702 48.562C955.014 48.5828 955.202 48.5412 955.41 48.2913C955.785 47.854 956.055 45.98 956.243 41.066V40.6704ZM948.601 41.6907H951.391C950.808 45.8343 949.538 49.6448 943.083 51.7062C942.833 51.0607 942.188 50.1028 941.626 49.5823C947.414 47.9373 948.143 44.814 948.601 41.6907ZM946.436 52.3725H948.913V56.058C948.913 56.6827 949.08 56.7868 950.1 56.7868C950.558 56.7868 952.474 56.7868 953.078 56.7868C953.952 56.7868 954.077 56.4953 954.202 54.5172C954.702 54.892 955.743 55.2668 956.409 55.4125C956.118 58.286 955.452 58.9939 953.286 58.9939C952.703 58.9939 950.35 58.9939 949.83 58.9939C947.102 58.9939 946.436 58.3068 946.436 56.0996V52.3725ZM947.914 51.2481L949.601 49.728C950.975 50.436 952.661 51.5812 953.453 52.4974L951.641 54.1632C950.933 53.247 949.288 52.0185 947.914 51.2481ZM954.869 52.9347L956.909 51.8103C958.429 53.3303 960.033 55.4125 960.657 56.9742L958.408 58.2443C957.888 56.7243 956.368 54.538 954.869 52.9347ZM943.666 52.3933L945.915 53.1221C945.395 55.1418 944.582 57.1408 943.042 58.4317L940.959 57.0366C942.334 55.9747 943.229 54.2256 943.666 52.3933Z" fill="#FFEFCC"/>
<path d="M964.688 46.0217H983.428V48.2288H964.688V46.0217ZM966.5 41.9614H978.41V44.1269H966.5V41.9614ZM970.165 53.2886H979.472V55.1626H970.165V53.2886ZM970.165 56.5577H979.472V58.6608H970.165V56.5577ZM971.414 39.7126H973.871V47.2502H971.414V39.7126ZM980.576 40.3164L982.72 41.42C978.639 47.1044 972.288 51.2897 965.542 53.7676C965.25 53.2262 964.501 52.1851 964.043 51.6853C970.81 49.5198 976.932 45.5428 980.576 40.3164ZM968.769 49.8946H981.055V59.2022H978.452V51.9352H971.268V59.2854H968.769V49.8946Z" fill="#FFEFCC"/>
<path d="M880.213 49.4609H934.686" stroke="#FFEFCC" stroke-width="2" stroke-linecap="round"/>
</g>
<defs>
<clipPath id="clip0_577_2278">
<rect width="1012" height="100" fill="white" transform="translate(0 0.171875)"/>
</clipPath>
</defs>
</svg>
