<svg width="34" height="35" viewBox="0 0 34 35" fill="none" xmlns="http://www.w3.org/2000/svg">
<path d="M14.6494 7.96266C14.2882 7.90901 14.274 7.89113 14.4544 7.87325C14.8011 7.8196 15.5659 7.89113 16.0901 8.01631C17.3052 8.32032 18.3026 9.10718 19.2561 10.4842L19.5016 10.8597L19.9757 10.7882C22.0026 10.4663 23.9714 10.7167 25.4997 11.5035C25.9182 11.7181 26.5603 12.1473 26.6279 12.2546C26.6564 12.2904 26.6643 12.5228 26.6545 12.7553C26.615 13.5958 26.4402 14.2217 26.0809 14.7046C25.8872 14.9728 25.8733 15.0444 25.9166 15.2768C25.9526 15.4557 26.1407 15.5808 26.3353 15.5808C26.7601 15.5808 27.3346 14.9013 27.7312 13.9535L27.8927 13.5779L28.0172 13.7568C28.7216 14.7761 29.1549 16.1889 29.0664 17.1903L29.0497 17.4586L28.9356 17.2261C28.7501 16.8148 28.5545 16.5465 28.2634 16.3141C27.7416 15.9027 27.1289 15.7776 25.465 15.6881C23.9604 15.5987 23.1176 15.4736 22.3237 15.1874C20.9664 14.7046 20.3448 14.0787 19.0766 11.7718C18.5137 10.7524 18.1437 10.198 17.7562 9.73309C16.9102 8.71375 15.9704 8.17726 14.6494 7.96266Z" fill="#F2F2F2"/>
<path d="M27.3949 10.2362C27.5624 9.55669 27.7378 9.10961 28.0124 8.6983C28.1145 8.53735 28.2131 8.39429 28.2308 8.39429C28.2485 8.39429 28.1888 8.51947 28.1079 8.66253C27.8898 9.05596 27.7643 9.61034 27.7312 10.2362C27.6986 11.041 27.7309 11.1483 28.41 12.0246C28.7194 12.4359 29.0787 12.9545 29.214 13.1691L29.4383 13.5625L29.1931 13.2764C28.891 12.9187 28.1736 12.2391 27.9963 12.1497C27.8863 12.0782 27.8686 12.0782 27.7628 12.1676C27.6781 12.2391 27.6395 12.3464 27.5387 12.8651C27.3646 13.6698 27.1611 14.1705 26.7948 14.6891C26.6011 14.9574 26.5938 14.9037 26.7768 14.5997C26.9105 14.3672 26.949 14.2599 27.0985 13.491C27.4009 11.9351 27.297 11.5596 26.3391 10.9337C26.1049 10.7727 25.69 10.5403 25.4488 10.4151C25.19 10.2899 24.9985 10.1826 25.0162 10.1826C25.0586 10.1468 26.0436 10.4508 26.4159 10.6297C26.9866 10.88 27.0893 10.8979 27.1636 10.88C27.2271 10.8264 27.2903 10.6833 27.3949 10.2362Z" fill="#F2F2F2"/>
<path d="M14.4143 12.8959C13.8726 11.8587 13.7076 10.2492 14.0467 9.05108L14.1551 8.67554L14.3251 8.7113C14.6332 8.76495 15.1401 8.97955 15.3743 9.1405C15.9988 9.56969 16.2026 10.1598 16.2184 11.6262C16.2235 12.0554 16.25 12.5562 16.2719 12.7171C16.3082 12.9854 16.5228 13.6113 16.7295 14.0047C16.8685 14.2908 16.7168 14.4339 16.2813 14.3981C15.6228 14.3266 14.8419 13.7007 14.4143 12.8959Z" fill="#F2F2F2"/>
<path d="M24.46 20.6821C21.234 19.2515 20.235 18.0175 20.6418 15.9252C20.7008 15.6212 20.7672 15.3708 20.7672 15.3708C20.7849 15.3708 20.8879 15.4781 21.0229 15.6033C21.6195 16.1756 22.3672 16.426 24.5168 16.7478C25.7705 16.9446 26.486 17.0876 27.1133 17.3201C29.1156 18.0354 30.1579 19.5018 30.0906 21.4869C30.0678 22.0591 29.8027 23.15 29.5499 23.7222C29.3391 24.1693 28.8252 24.9919 28.7333 25.0098C28.7156 25.0098 28.6976 24.9204 28.7254 24.7773C28.836 24.0263 28.6034 23.3109 28.0917 22.7566C27.4736 22.1128 26.6118 21.6299 24.46 20.6821Z" fill="#F2F2F2"/>
<path d="M21.8673 21.2652C21.8841 20.9969 21.8616 20.6572 21.8363 20.5141L21.8 20.2458L21.921 20.4426C22.099 20.7108 22.2134 21.0327 22.2857 21.4798C22.3436 21.8196 22.3227 21.9269 22.2149 22.4812C22.1107 23.0177 22.0686 23.1429 21.9034 23.4469C21.6325 23.9298 21.3541 24.2695 20.9272 24.6451C20.1615 25.3068 19.2602 25.6644 18.0432 25.8254C17.8273 25.8432 17.2152 25.8969 16.6773 25.9327C15.3361 26.0042 14.4234 26.1473 13.5714 26.4334C13.4583 26.4692 13.3452 26.5049 13.3309 26.487C13.3025 26.4513 13.9137 26.1294 14.3978 25.9148C15.0763 25.6108 15.7447 25.4498 17.1915 25.1995C17.9025 25.0922 18.6382 24.9491 18.8291 24.8776C20.6889 24.3232 21.8237 22.9462 21.8673 21.2652Z" fill="#F2F2F2"/>
<path d="M22.9167 24.1574C22.6547 23.1381 22.7362 22.1724 23.1612 21.2604C23.214 21.171 23.2668 21.0815 23.3022 21.0815C23.3376 21.0815 23.4333 21.1352 23.5256 21.2067C23.7102 21.3498 24.1039 21.6002 25.1149 22.2261C26.3954 23.0129 27.0913 23.6209 27.5221 24.3184C27.8994 24.9264 28.0647 25.6238 28.0394 26.4822C28.034 26.9651 27.755 28.1275 27.5373 28.6103C26.8524 30.1304 25.7312 31.3464 24.3037 32.0439C24.0882 32.1512 23.915 32.2227 23.8973 32.2227C23.8796 32.2227 23.9852 32.0439 24.1331 31.8293C24.7351 30.9172 24.9585 30.041 24.8312 29.0574C24.7547 28.4494 24.4902 27.7162 23.9159 26.4822C23.2207 25.0516 23.0636 24.676 22.9167 24.1574Z" fill="#F2F2F2"/>
<path d="M8.67061 29.6172C10.1957 28.5085 11.9591 27.7216 13.4944 27.4712C14.1523 27.3639 15.2072 27.3997 15.7599 27.5607C16.6492 27.811 17.3944 28.3475 17.7082 29.0092C18.0078 29.653 18.0947 30.2074 18.0495 31.4413C18.0265 31.9241 18.0176 32.4249 18.0145 32.5322C18.0309 33.1759 18.2167 33.6767 18.5185 33.9449C18.9872 34.3562 19.9394 34.3741 20.9469 34.0164C21.1166 33.9628 21.2686 33.9092 21.2651 33.927C21.2935 33.9628 20.7531 34.2847 20.4033 34.4456C19.9157 34.6781 19.5478 34.7497 19.07 34.7497C18.2205 34.7497 17.5819 34.3026 17.1717 33.4084C17.0825 33.2296 16.9356 32.711 16.8171 32.2281C16.4792 30.7796 16.2441 30.3504 15.6124 29.8676C15.0552 29.4563 14.2585 29.3669 13.58 29.6709C12.6895 30.0643 12.272 31.1194 12.7132 31.7632C12.8911 32.0314 13.2741 32.246 13.6177 32.2997C14.2551 32.3891 14.9222 31.8705 15.0508 31.2088C15.1342 30.7796 15.0236 30.5293 14.6371 30.3325C14.1195 30.0822 13.4445 30.3683 13.3544 30.9227C13.3092 31.1552 13.3876 31.2982 13.5968 31.4055C13.7245 31.4771 13.7245 31.4771 13.6218 31.4592C13.1294 31.3519 13.1306 30.7081 13.6176 30.2968C14.2105 29.796 15.2129 30.0106 15.4313 30.7081C15.5173 30.9942 15.4237 31.5665 15.2303 31.9241C14.7765 32.711 13.8471 33.1223 13.0251 32.8898C12.4724 32.7289 12.2559 32.5679 11.6905 31.8347C10.702 30.5471 10.2729 30.2968 8.55527 30.0285L8.22945 29.9749L8.67061 29.6172Z" fill="#F2F2F2"/>
<path fill-rule="evenodd" clip-rule="evenodd" d="M4.95449 0.850759C8.09421 5.91167 12.918 13.7802 13.1532 14.2094C13.3491 14.5671 13.1769 14.9069 12.6858 15.1572C12.4102 15.3003 11.8692 15.4433 11.6214 15.4433C11.3383 15.4433 11.0298 15.3003 10.8449 15.0678C10.7169 14.9069 10.2249 13.8875 9.14376 11.4375C8.32304 9.55981 7.61671 8.00399 7.60249 7.9861C7.53866 7.95034 7.53866 7.95034 8.93993 11.8488C9.82639 14.2988 10.0985 15.1751 10.0776 15.2824C10.0324 15.5149 9.93733 15.6401 9.5916 15.962C9.00949 16.4984 8.67894 17.1065 8.27286 18.3762C7.82127 19.7889 7.14878 20.7904 5.45586 22.4893C4.46482 23.4907 4.30618 23.6696 4.03156 24.0809C3.68646 24.5816 3.56006 24.8677 3.39952 25.5115C3.23204 26.1911 3.2194 26.6203 3.28893 27.2641C3.35466 27.8363 3.47634 28.2119 3.81164 28.9451C4.09354 29.5888 4.24745 30.0717 4.21268 30.2505C4.18488 30.3936 4.22027 30.3936 4.88518 30.2505C6.47667 29.8929 7.85136 29.2848 8.68755 28.5338C9.20267 28.0688 9.35752 27.8184 9.48266 27.1746C9.56261 26.7633 9.56229 26.6739 9.50477 26.4235C9.40427 26.0301 9.1306 25.7082 8.50234 25.2075C7.6753 24.5458 7.37255 24.0093 7.40541 23.294C7.43511 22.686 7.62125 22.2747 8.37116 21.148C9.14572 19.9856 9.38116 19.5028 9.69907 18.3225C9.89815 17.5714 10.0457 17.2674 10.3033 17.0349C10.582 16.7846 10.7941 16.6952 11.3566 16.6236C12.2835 16.4984 12.9127 16.266 13.4597 15.8189C13.9398 15.4433 14.1897 15.0678 14.3152 14.5134L14.4128 14.1021L14.2314 13.8517C13.5874 12.8861 4.55534 0.0817871 4.50225 0.0817871C4.48455 0.0817871 4.70166 0.421565 4.95449 0.850759ZM5.44451 26.2805C5.70523 25.9407 5.68247 25.5115 5.40563 25.2969C5.14302 25.1002 4.66551 25.1896 4.61337 25.4579C4.59946 25.5294 4.62095 25.6009 4.72018 25.6367C4.86208 25.7261 4.86239 25.8155 4.70028 26.0122C4.53816 26.209 4.5034 26.3878 4.63834 26.513C4.84786 26.7097 5.20497 26.6024 5.44451 26.2805Z" fill="#F2F2F2"/>
<path fill-rule="evenodd" clip-rule="evenodd" d="M14.4417 16.8755C13.9927 17.0007 13.4952 17.4656 13.281 17.9306C13.1546 18.2167 13.0892 18.7353 13.1818 18.8963C13.3278 19.1467 13.4908 19.2182 13.9864 19.2182C14.9597 19.2182 15.8749 18.789 16.0642 18.2704C16.2361 17.8412 15.9792 17.251 15.5181 16.9828C15.2805 16.8397 14.7423 16.7861 14.4417 16.8755ZM15.4006 17.7697C15.5838 17.5551 15.5759 17.3226 15.3418 17.1616C14.923 16.8576 14.1488 17.108 14.0584 17.5729C14.0132 17.8054 14.3362 18.0558 14.6901 18.0558C14.9202 18.0558 15.2666 17.9127 15.4006 17.7697Z" fill="#F2F2F2"/>
</svg>
