<svg width="969" height="190" viewBox="0 0 969 190" fill="none" xmlns="http://www.w3.org/2000/svg">
<g clip-path="url(#clip0_577_2698)">
<path d="M879.958 85.4062L843.985 86.6388L842.98 91.8199H878.702L879.958 85.4062Z" fill="#F2F2F2"/>
<path d="M526.437 92.2303C528.297 88.4529 529.724 84.3331 530.614 79.9166L538.021 41.2867C542.78 17.4696 527.966 2.38281 506.795 2.38281H467.901L449.846 95.3115L526.448 92.2303H526.437ZM496.729 37.8402H503.086L494.355 83.3516H487.999L496.729 37.8402Z" fill="#F2F2F2"/>
<path d="M954.894 74.998L969.001 2.38281H933.279L918.979 76.4473L954.894 74.998Z" fill="#F2F2F2"/>
<path d="M440.292 95.6881C443.099 91.0092 445.199 85.7253 446.363 79.9166L453.77 41.2866C458.529 17.4696 443.716 2.38281 422.545 2.38281H383.639L364.922 98.7237L440.292 95.6881ZM412.49 37.8402H418.847L410.116 83.3516H403.759L412.49 37.8402Z" fill="#F2F2F2"/>
<path d="M313.429 100.789L328.585 37.3038H331.233L321.806 100.447L355.394 99.1003L369.078 2.38281H303.979L279.316 102.159L313.429 100.789Z" fill="#F2F2F2"/>
<path d="M655.925 87.0193L665.501 37.5707H671.857L662.339 86.7568L698.312 85.3075L707.054 39.4195C711.814 15.6024 697.262 0.515625 675.829 0.515625C654.396 0.515625 634.013 15.6024 629.254 39.4195L619.918 88.4573L655.948 87.0079L655.925 87.0193Z" fill="#F2F2F2"/>
<path d="M912.575 76.6984L926.921 2.38281H891.199L876.477 78.1477L912.575 76.6984Z" fill="#F2F2F2"/>
<path d="M741.625 83.5799L752.672 37.3038H755.32L748.449 83.2946L781.912 81.9594L793.165 2.38281H728.066L707.66 84.9379L741.625 83.5799Z" fill="#F2F2F2"/>
<path d="M827.345 80.1357L835.802 37.0551H842.148L833.874 79.8733L869.904 78.4239L877.607 38.9038C882.104 15.3493 867.815 0 846.119 0C824.424 0 804.303 14.8129 799.806 38.9038L791.35 81.5851L827.334 80.1357H827.345Z" fill="#F2F2F2"/>
<path d="M611.221 88.8216C613.184 84.6904 614.611 80.2169 615.387 76.4737L622.269 41.2788C627.028 17.4618 612.214 2.375 591.043 2.375H552.137L534.744 91.8915L611.221 88.8216ZM580.977 37.8438H587.323L579.117 79.9202H572.76L580.966 37.8438H580.977Z" fill="#F2F2F2"/>
<path d="M36.0415 111.94L50.433 37.5671H56.7899L42.444 111.677L78.4285 110.228L81.4072 94.9814L91.9868 39.4159C96.7459 15.6102 82.1833 0.523438 60.7501 0.523438C39.3169 0.523438 18.9452 15.6102 14.1746 39.4273L3.59502 94.9928L0 113.389L36.0415 111.94Z" fill="#F2F2F2"/>
<path d="M707.864 94.9938L708.571 91.2734L672.621 92.5059L661.026 152.419H654.669L666.219 92.7342L630.257 93.9667L630.063 95.0052L619.21 150.571C614.451 174.388 629.264 189.475 650.435 189.475C671.606 189.475 692.251 174.388 697.01 150.571L707.864 95.0052V94.9938Z" fill="#F2F2F2"/>
<path d="M617.795 96.5799C618.389 95.8838 618.959 95.1192 619.507 94.3203L545.187 96.8652L527.555 187.603H563.277L577.303 115.364H583.66L569.634 187.603H605.355L619.119 117.213C620.443 109.544 619.918 102.126 617.795 96.5685V96.5799Z" fill="#F2F2F2"/>
<path d="M448.647 100.188L375.56 102.698L359.057 187.616H394.779L408.28 118.812H411.453C425.719 118.812 439.631 111.953 448.635 100.188H448.647Z" fill="#F2F2F2"/>
<path d="M534.983 97.2344L460.367 99.7907L443.305 187.618H479.027L492.528 118.815H495.701C511.131 118.815 526.127 110.792 534.983 97.2344Z" fill="#F2F2F2"/>
<path d="M758.936 89.5475L756.14 108.229H747.147L751.552 89.7985L717.576 90.9626L693.689 187.612H728.099L738.679 143.424H751.118L744.499 187.612H778.372L792.41 88.4062L758.936 89.5475Z" fill="#F2F2F2"/>
<path d="M886.521 85.1818L866.617 187.617H902.351L916.902 112.993H923.247L908.696 187.617H944.418L964.847 82.5L886.521 85.1818Z" fill="#F2F2F2"/>
<path d="M246.014 103.505C245.683 100.995 245.112 98.6667 244.325 96.5897C248.821 91.2945 252.006 82.8267 253.318 76.4816L260.2 41.2866C264.959 17.4696 250.145 2.38281 228.975 2.38281H190.068L169.822 106.564L246.002 103.505H246.014ZM218.92 37.8402H225.277L217.071 79.9166H210.714L218.92 37.8402Z" fill="#F2F2F2"/>
<path d="M877.378 98.1766H841.656L831.065 152.955H824.708L835.824 95.004L837.422 86.8672L801.472 88.0997L800.102 95.004L789.249 151.106C784.752 174.923 799.566 190.01 820.474 190.01C841.382 190.01 862.291 175.197 867.05 151.106L877.367 98.188L877.378 98.1766Z" fill="#F2F2F2"/>
<path d="M120.964 108.527L141.553 2.38281H105.831L84.8887 109.976L120.964 108.527Z" fill="#F2F2F2"/>
<path d="M53.458 113.733L45.9713 152.42H39.6144L47.0555 113.949L11.0597 115.182L4.15494 150.559C-0.604177 174.376 14.2096 189.463 35.3802 189.463C56.5509 189.463 77.1966 174.376 81.9557 150.559L89.3854 112.5L53.4466 113.733H53.458Z" fill="#F2F2F2"/>
<path d="M163.306 106.826L183.632 2.38281H147.91L127.367 108.276L163.306 106.826Z" fill="#F2F2F2"/>
<path d="M174.17 109.594L138.277 110.826L130.208 152.423H123.851L131.874 111.054L95.8441 112.287L88.3915 150.575C83.8949 174.392 98.7086 189.478 119.617 189.478C140.525 189.478 161.696 174.392 166.192 150.575L174.17 109.605V109.594Z" fill="#F2F2F2"/>
<path d="M332.671 104.157L332.066 108.231H323.061L323.963 104.465L289.873 105.629L269.615 187.613H304.013L314.593 143.426H327.033L320.425 187.613H354.298L366.258 103.016L332.671 104.157Z" fill="#F2F2F2"/>
<path d="M180.698 109.371L165.496 187.612H201.218L215.244 115.373H221.59L207.564 187.612H243.285L257.049 117.222C257.677 113.604 257.871 110.055 257.7 106.734L180.686 109.371H180.698Z" fill="#F2F2F2"/>
</g>
<defs>
<clipPath id="clip0_577_2698">
<rect width="969" height="190" fill="white"/>
</clipPath>
</defs>
</svg>
