<svg width="1385" height="1385" viewBox="0 0 1385 1385" fill="none" xmlns="http://www.w3.org/2000/svg">
<path d="M692.043 1383.11C842.885 1383.11 965.167 1073.71 965.167 692.055C965.167 310.396 842.885 1 692.043 1C541.202 1 418.92 310.396 418.92 692.055C418.92 1073.71 541.202 1383.11 692.043 1383.11Z" stroke="url(#paint0_radial_2024_64)" stroke-width="2" stroke-miterlimit="10"/>
<path d="M956.25 761.36C859.405 1130.53 662.611 1398.79 516.712 1360.49C370.812 1322.22 331.017 991.922 427.862 622.75C524.707 253.577 721.502 -14.6494 867.401 23.6198C1013.3 61.889 1053.1 392.188 956.25 761.36Z" stroke="url(#paint1_radial_2024_64)" stroke-width="2" stroke-miterlimit="10"/>
<path d="M886.103 884.243C617.503 1155.42 312.896 1289.16 205.74 1183.03C98.5844 1076.88 229.412 771.014 498.012 499.842C766.611 228.67 1071.22 94.9246 1178.37 201.053C1285.56 307.207 1154.7 613.071 886.103 884.243Z" stroke="url(#paint2_radial_2024_64)" stroke-width="2" stroke-miterlimit="10"/>
<path d="M828.763 928.506C498.353 1119.54 169.285 1168.56 93.7971 1037.97C18.283 907.386 224.914 646.656 555.324 455.625C885.734 264.569 1214.8 215.568 1290.29 346.157C1365.8 476.746 1159.15 737.476 828.763 928.506Z" stroke="url(#paint3_radial_2024_64)" stroke-width="2" stroke-miterlimit="10"/>
<path d="M764.663 955.339C396.72 1056.78 65.9417 1021.15 25.8569 875.723C-14.2278 730.3 251.531 530.169 619.448 428.723C987.392 327.277 1318.17 362.916 1358.25 508.339C1398.34 653.762 1132.58 853.866 764.663 955.339Z" stroke="url(#paint4_radial_2024_64)" stroke-width="2" stroke-miterlimit="10"/>
<path d="M690.308 965.171C308.661 962.751 0.0552886 838.501 1.00217 687.66C1.97536 536.819 312.133 416.515 693.78 418.934C1075.45 421.354 1384.06 545.604 1383.09 696.445C1382.14 847.286 1071.95 967.591 690.308 965.171Z" stroke="url(#paint5_radial_2024_64)" stroke-width="2" stroke-miterlimit="10"/>
<path d="M929.133 827.668C739.625 1158.97 479.863 1366.8 348.93 1291.92C217.997 1217.01 265.472 887.741 454.981 556.469C644.489 225.145 904.251 17.3076 1035.18 92.189C1166.12 167.097 1118.64 496.37 929.16 827.641L929.133 827.668Z" stroke="url(#paint6_radial_2024_64)" stroke-width="2" stroke-miterlimit="10"/>
<path d="M427.862 761.36C524.707 1130.53 721.502 1398.79 867.401 1360.49C1013.3 1322.22 1053.1 991.922 956.25 622.75C859.405 253.577 662.611 -14.6494 516.712 23.6198C370.812 61.889 331.017 392.188 427.862 761.36Z" stroke="url(#paint7_radial_2024_64)" stroke-width="2" stroke-miterlimit="10"/>
<path d="M498.011 884.244C766.611 1155.42 1071.22 1289.16 1178.37 1183.03C1285.53 1076.88 1154.7 771.014 886.102 499.842C617.529 228.696 312.921 94.9251 205.739 201.079C98.5573 307.234 229.411 613.098 498.011 884.27V884.244Z" stroke="url(#paint8_radial_2024_64)" stroke-width="2" stroke-miterlimit="10"/>
<path d="M555.323 928.509C885.733 1119.54 1214.8 1168.57 1290.29 1037.98C1365.8 907.388 1159.15 646.658 828.762 455.628C498.352 264.571 169.31 215.544 93.7957 346.133C18.2817 476.722 224.939 737.452 555.323 928.482V928.509Z" stroke="url(#paint9_radial_2024_64)" stroke-width="2" stroke-miterlimit="10"/>
<path d="M619.448 955.334C987.392 1056.78 1318.14 1021.14 1358.25 875.719C1398.34 730.296 1132.58 530.165 764.663 428.719C396.72 327.299 65.9417 362.938 25.8569 508.361C-14.2278 653.784 251.531 853.914 619.448 955.36V955.334Z" stroke="url(#paint10_radial_2024_64)" stroke-width="2" stroke-miterlimit="10"/>
<path d="M454.98 827.668C644.489 1158.97 904.251 1366.8 1035.18 1291.92C1166.12 1217.01 1118.64 887.741 929.133 556.469C739.624 225.145 479.862 17.3076 348.929 92.189C217.996 167.097 265.472 496.37 454.954 827.641L454.98 827.668Z" stroke="url(#paint11_radial_2024_64)" stroke-width="2" stroke-miterlimit="10"/>
<defs>
<radialGradient id="paint0_radial_2024_64" cx="0" cy="0" r="1" gradientUnits="userSpaceOnUse" gradientTransform="translate(692.044 692.055) rotate(90) scale(691.055 856.21)">
<stop offset="0.211401" stop-color="white" stop-opacity="0"/>
<stop offset="1" stop-color="white"/>
</radialGradient>
<radialGradient id="paint1_radial_2024_64" cx="0" cy="0" r="1" gradientUnits="userSpaceOnUse" gradientTransform="translate(692.044 692.055) rotate(90) scale(691.055 856.21)">
<stop offset="0.211401" stop-color="white" stop-opacity="0"/>
<stop offset="1" stop-color="white"/>
</radialGradient>
<radialGradient id="paint2_radial_2024_64" cx="0" cy="0" r="1" gradientUnits="userSpaceOnUse" gradientTransform="translate(692.044 692.055) rotate(90) scale(691.055 856.21)">
<stop offset="0.211401" stop-color="white" stop-opacity="0"/>
<stop offset="1" stop-color="white"/>
</radialGradient>
<radialGradient id="paint3_radial_2024_64" cx="0" cy="0" r="1" gradientUnits="userSpaceOnUse" gradientTransform="translate(692.044 692.055) rotate(90) scale(691.055 856.21)">
<stop offset="0.211401" stop-color="white" stop-opacity="0"/>
<stop offset="1" stop-color="white"/>
</radialGradient>
<radialGradient id="paint4_radial_2024_64" cx="0" cy="0" r="1" gradientUnits="userSpaceOnUse" gradientTransform="translate(692.044 692.055) rotate(90) scale(691.055 856.21)">
<stop offset="0.211401" stop-color="white" stop-opacity="0"/>
<stop offset="1" stop-color="white"/>
</radialGradient>
<radialGradient id="paint5_radial_2024_64" cx="0" cy="0" r="1" gradientUnits="userSpaceOnUse" gradientTransform="translate(692.044 692.055) rotate(90) scale(691.055 856.21)">
<stop offset="0.211401" stop-color="white" stop-opacity="0"/>
<stop offset="1" stop-color="white"/>
</radialGradient>
<radialGradient id="paint6_radial_2024_64" cx="0" cy="0" r="1" gradientUnits="userSpaceOnUse" gradientTransform="translate(692.044 692.055) rotate(90) scale(691.055 856.21)">
<stop offset="0.211401" stop-color="white" stop-opacity="0"/>
<stop offset="1" stop-color="white"/>
</radialGradient>
<radialGradient id="paint7_radial_2024_64" cx="0" cy="0" r="1" gradientUnits="userSpaceOnUse" gradientTransform="translate(692.044 692.055) rotate(90) scale(691.055 856.21)">
<stop offset="0.211401" stop-color="white" stop-opacity="0"/>
<stop offset="1" stop-color="white"/>
</radialGradient>
<radialGradient id="paint8_radial_2024_64" cx="0" cy="0" r="1" gradientUnits="userSpaceOnUse" gradientTransform="translate(692.044 692.055) rotate(90) scale(691.055 856.21)">
<stop offset="0.211401" stop-color="white" stop-opacity="0"/>
<stop offset="1" stop-color="white"/>
</radialGradient>
<radialGradient id="paint9_radial_2024_64" cx="0" cy="0" r="1" gradientUnits="userSpaceOnUse" gradientTransform="translate(692.044 692.055) rotate(90) scale(691.055 856.21)">
<stop offset="0.211401" stop-color="white" stop-opacity="0"/>
<stop offset="1" stop-color="white"/>
</radialGradient>
<radialGradient id="paint10_radial_2024_64" cx="0" cy="0" r="1" gradientUnits="userSpaceOnUse" gradientTransform="translate(692.044 692.055) rotate(90) scale(691.055 856.21)">
<stop offset="0.211401" stop-color="white" stop-opacity="0"/>
<stop offset="1" stop-color="white"/>
</radialGradient>
<radialGradient id="paint11_radial_2024_64" cx="0" cy="0" r="1" gradientUnits="userSpaceOnUse" gradientTransform="translate(692.044 692.055) rotate(90) scale(691.055 856.21)">
<stop offset="0.211401" stop-color="white" stop-opacity="0"/>
<stop offset="1" stop-color="white"/>
</radialGradient>
</defs>
</svg>
