<svg width="32" height="25" viewBox="0 0 32 25" fill="none" xmlns="http://www.w3.org/2000/svg">
<g clip-path="url(#clip0_577_2655)">
<path d="M13.79 13.0583C14.91 13.7729 15.4702 14.1293 16.1617 14.1301C16.8533 14.1301 17.5519 13.7744 18.9499 13.0631L27.8451 8.53501C28.2472 8.33063 28.5445 7.95118 28.6243 7.54083C28.704 7.13049 28.5543 6.75103 28.2316 6.54665L21.0947 2.01622C19.9741 1.30484 19.4136 0.949951 18.7236 0.949951C18.0328 0.949951 17.3341 1.30643 15.9383 2.01859L8.29043 5.91688C8.22859 5.94856 8.19726 5.96441 8.16836 5.98025C5.55426 7.33487 3.62281 9.80249 3.08086 12.4784L3.03251 12.7272C2.53396 15.4 3.50414 17.8652 5.58727 19.2214L5.68551 19.2848L9.51809 21.7294C11.7612 23.1593 12.8827 23.8747 14.2674 23.8754C15.6514 23.8754 17.0514 23.1617 19.8511 21.7326L24.9057 19.1525C26.305 18.4388 27.0047 18.0815 27.4653 17.4929C27.9258 16.9051 28.0647 16.1906 28.3425 14.7615L28.8805 11.9936C28.9554 11.6039 28.8141 11.2434 28.5082 11.0486C28.2022 10.8537 27.7787 10.8529 27.3964 11.047L17.0215 16.3284C16.3239 16.6833 15.9755 16.8607 15.6301 16.8607C15.2855 16.8607 15.0059 16.6841 14.4462 16.3292L8.81466 12.7605C8.5315 12.5814 8.39088 12.4911 8.26565 12.4753C7.98221 12.4388 7.67204 12.5981 7.50974 12.8642C7.43853 12.9815 7.40439 13.1613 7.33674 13.5217C7.28627 13.7855 7.26137 13.9178 7.26348 14.0398C7.26715 14.3115 7.36452 14.5579 7.54135 14.7401C7.62056 14.8225 7.72479 14.8882 7.9323 15.0205L13.9507 18.8578C14.5113 19.2159 14.7922 19.3941 15.1376 19.3941C15.4846 19.3941 15.834 19.2159 16.5337 18.8586L25.738 14.161C25.9772 14.039 26.0962 13.9788 26.1681 14.024C26.2399 14.0699 26.2162 14.1919 26.1687 14.4359L25.925 15.6899C25.8555 16.0472 25.8209 16.2254 25.7059 16.3728C25.5909 16.5201 25.4163 16.6088 25.066 16.7879L17.4761 20.6616C16.0759 21.3761 15.3761 21.7334 14.6839 21.7326C13.9915 21.7326 13.43 21.3746 12.3093 20.6592L6.62036 17.0287L6.5801 17.0033C5.3903 16.2326 4.83806 14.8264 5.12545 13.3023L5.3595 12.0982C5.52318 11.2561 6.13035 10.4782 6.95421 10.0552C7.68379 9.68128 8.49417 9.68049 9.07854 10.0536L13.791 13.0575L13.79 13.0583Z" fill="white"/>
</g>
<defs>
<clipPath id="clip0_577_2655">
<rect width="25.824" height="24.21" fill="white" transform="matrix(1 0 -0.190809 0.981627 5.39771 0.559326)"/>
</clipPath>
</defs>
</svg>
