<svg width="540" height="102" viewBox="0 0 540 102" fill="none" xmlns="http://www.w3.org/2000/svg">
<path d="M224.796 51.8132L232.27 20.5007H233.703L228.994 52.0562L246.875 53.0785L254.156 1.61426H218.972L206.823 50.7742L224.796 51.8132Z" fill="#FFF7E4"/>
<path d="M113.496 45.3949L122.001 1.61426H102.695L94.4002 44.2972L113.496 45.3949Z" fill="#FFF7E4"/>
<path d="M201.654 50.481L211.105 1.61426H191.8L182.499 49.3749L201.654 50.481Z" fill="#FFF7E4"/>
<path d="M135.279 46.6517L140.307 20.7856H141.739L138.153 46.8193L153.998 47.7326L160.475 1.61426H125.434L116.887 45.596L135.279 46.6517Z" fill="#FFF7E4"/>
<path d="M175.734 48.9811L184.935 1.61426H166.341L157.326 47.9253L175.734 48.9811Z" fill="#FFF7E4"/>
<path d="M290.46 55.5948L324.68 57.5638C325.912 51.2041 323.482 47.6598 318.505 45.2382L305.92 39.088L309.498 20.0675H312.933L309.64 37.0854H328.661L331.811 20.7797C334.383 7.76705 326.658 0.611328 314.936 0.611328C303.213 0.611328 292.907 7.76705 290.335 20.7797L285.617 45.0958C284.436 51.1203 286.866 53.6676 290.46 55.5864V55.5948Z" fill="#FFF7E4"/>
<path d="M438.135 64.1047C447.788 62.2361 456.31 54.6447 458.53 43.5341L462.535 22.6534C465.108 9.7832 457.097 1.63037 445.66 1.63037H424.637L412.78 62.6551L438.135 64.113V64.1047ZM440.23 20.7933H443.666L438.948 45.3942H435.513L440.23 20.7933Z" fill="#FFF7E4"/>
<path d="M476.871 66.3342L477.843 61.4073H486.423L490.143 42.3784H481.555L485.702 20.928H494.291L498.003 1.61426H470.117L457.758 65.2281L476.871 66.3342Z" fill="#FFF7E4"/>
<path d="M91.0146 44.1045L99.268 1.61426H80.6749L72.6058 43.0404L91.0146 44.1045Z" fill="#FFF7E4"/>
<path d="M346.453 58.8181L353.843 20.7856H355.276L350.005 59.0276L365.825 59.9325L374.011 1.61426H338.97L328.061 57.7624L346.453 58.8181Z" fill="#FFF7E4"/>
<path d="M507.825 68.1177L508.881 62.6964H512.317L511.227 68.3188L530.365 69.4248L531.479 63.7019C532.192 59.5543 531.907 55.5491 530.767 52.5494C533.197 49.6921 534.915 45.1088 535.627 41.6817L539.347 22.6613C541.92 9.79101 533.909 1.63818 522.472 1.63818H501.449L488.746 67.0368L507.834 68.1344L507.825 68.1177ZM517.034 20.7843H520.469L516.037 43.5251H512.601L517.034 20.7843Z" fill="#FFF7E4"/>
<path d="M386.894 61.1475L398.466 1.61426H379.872L368.485 60.0917L386.894 61.1475Z" fill="#FFF7E4"/>
<path d="M409.387 62.4463L421.202 1.61426H401.897L390.292 61.3486L409.387 62.4463Z" fill="#FFF7E4"/>
<path d="M369.668 61.7839L365.671 82.3042H364.238L367.137 61.6582L351.309 60.8203L345.787 100.906H380.686L388.102 62.7643L369.668 61.7839Z" fill="#FFF7E4"/>
<path d="M414.006 64.124L406.858 100.9H426.172L433.185 65.1463L414.006 64.124Z" fill="#FFF7E4"/>
<path d="M391.495 62.9458L384.113 100.911H403.426L410.607 63.9597L391.495 62.9458Z" fill="#FFF7E4"/>
<path d="M329.204 59.6504L321.185 100.909H339.778L347.613 60.6224L329.204 59.6504Z" fill="#FFF7E4"/>
<path d="M475.371 81.5857L478.145 67.5172L459.024 66.5117L452.337 100.899H480.231L483.952 81.5857H475.371Z" fill="#FFF7E4"/>
<path d="M512.531 69.3457L506.397 100.901H525.711L531.685 70.3512L512.531 69.3457Z" fill="#FFF7E4"/>
<path d="M325.831 59.4759L298.549 58.0347L306.325 62.0063L302.32 82.3172H298.884L302.462 64.1514H283.442L280.006 81.605C277.576 94.6177 285.302 101.773 296.882 101.773C308.461 101.773 319.053 94.6177 321.483 81.605L325.831 59.4842V59.4759Z" fill="#FFF7E4"/>
<path d="M490.026 68.1597L483.658 100.913H502.972L509.13 69.1735L490.026 68.1597Z" fill="#FFF7E4"/>
<path d="M202.681 52.9587L183.51 51.9448L177.879 80.8861H174.444L170.581 100.912H172.299C184.742 100.912 194.897 92.7592 197.469 79.889L202.681 52.9671V52.9587Z" fill="#FFF7E4"/>
<path d="M95.3395 47.2725L84.916 100.907H104.23L114.452 48.2863L95.3395 47.2725Z" fill="#FFF7E4"/>
<path d="M73.5211 46.1297L66.4743 82.3105H65.0415L70.1443 45.9453L54.2827 45.1074L46.5908 100.912H81.4896L91.9466 47.1016L73.5211 46.1297Z" fill="#FFF7E4"/>
<path d="M33.0489 43.9692L21.9885 100.897H40.5817L51.4577 44.9412L33.0489 43.9692Z" fill="#FFF7E4"/>
<path d="M50.5633 41.7751L54.6439 20.7856H56.0767L53.1608 41.9259L69.0224 42.8393L74.8123 1.61426H39.7711L32.1713 40.711L50.5633 41.7751Z" fill="#FFF7E4"/>
<path d="M230.193 54.4164L229.656 58.0026H224.797L225.71 54.1734L207.686 53.2266L195.906 100.912H214.499L220.222 77.0231H226.942L223.364 100.912H241.672L248.115 55.3632L230.193 54.4164Z" fill="#FFF7E4"/>
<path d="M117.844 48.4668L107.656 100.911H126.249L136.253 49.4471L117.844 48.4668Z" fill="#FFF7E4"/>
<path d="M158.315 50.6105L152.139 82.3085H150.706L155.181 50.4429L139.328 49.605L132.256 100.91H167.155L176.74 51.5824L158.315 50.6105Z" fill="#FFF7E4"/>
<path d="M19.5746 4.97404L20.7562 3.75594C22.5012 4.28194 24.7389 5.3201 25.8271 6.1783L24.5172 7.54867C23.5277 6.69046 21.3485 5.56925 19.5746 4.97404ZM19.522 1.76269H29.2941L28.9981 3.28532H19.226L19.522 1.76269ZM28.7441 1.76269H30.4645C30.4645 1.76269 30.3616 2.21948 30.293 2.42711C29.435 5.97067 28.9604 7.3964 28.4379 7.90856C28.0691 8.28229 27.7179 8.42071 27.2673 8.48992C26.8617 8.54529 26.213 8.54529 25.5275 8.51761C25.5907 8.04698 25.548 7.3964 25.3635 6.9673C25.9194 7.00883 26.4103 7.02267 26.6809 7.00883C26.8897 7.02267 27.022 6.99498 27.1953 6.82888C27.5056 6.5382 27.9311 5.29241 28.693 2.02569L28.7441 1.76269ZM23.4372 2.44095H25.3267C24.3965 5.19552 23.0439 7.72861 18.4062 9.09897C18.3204 8.66987 18.007 8.03314 17.6936 7.68709C21.8262 6.59356 22.7234 4.51726 23.4372 2.44095ZM20.5904 9.54192H22.2684L21.7922 11.992C21.7114 12.4072 21.8108 12.4764 22.5018 12.4764C22.812 12.4764 24.1093 12.4764 24.5182 12.4764C25.1105 12.4764 25.2327 12.2826 25.573 10.9677C25.863 11.2168 26.5196 11.466 26.952 11.5629C26.3833 13.4731 25.8405 13.9437 24.374 13.9437C23.9792 13.9437 22.3858 13.9437 22.0332 13.9437C20.186 13.9437 19.8235 13.4869 20.1087 12.0196L20.5904 9.54192ZM21.7368 8.79445L23.0754 7.78398C23.9146 8.25461 24.9088 9.01592 25.3263 9.62497L23.8843 10.7323C23.5232 10.1233 22.568 9.30661 21.7368 8.79445ZM26.2287 9.91566L27.7559 9.16818C28.5888 10.1787 29.4056 11.5629 29.6268 12.601L27.9398 13.4454C27.7836 12.4349 27.0368 10.9815 26.2287 9.91566ZM18.7122 9.55576L20.141 10.0402C19.5275 11.3829 18.7192 12.7117 17.5089 13.57L16.2791 12.6425C17.347 11.9366 18.1793 10.7739 18.7122 9.55576ZM15.2069 20.0445H27.8979L27.6127 21.5118H14.9217L15.2069 20.0445ZM16.9584 17.3453H25.0242L24.7444 18.7849H16.6786L16.9584 17.3453ZM17.9765 24.8754H24.2797L24.0375 26.1212H17.7343L17.9765 24.8754ZM17.554 27.0486H23.8573L23.5855 28.4466H17.2823L17.554 27.0486ZM20.5768 15.8504H22.2408L21.2668 20.8612H19.6028L20.5768 15.8504ZM26.7033 16.2518L28.0131 16.9854C24.5147 20.7643 19.6731 23.5465 14.7841 25.1937C14.6567 24.8339 14.2836 24.1418 14.0379 23.8095C18.9006 22.37 23.5603 19.7261 26.7033 16.2518ZM17.4703 22.6191H25.7899L24.5872 28.8065H22.8246L23.7636 23.9756H18.8987L17.9489 28.8619H16.2568L17.4703 22.6191Z" fill="#FFF7E4"/>
<path d="M7.72231 73.2208H10.7823L10.5562 74.3835H7.4963L7.72231 73.2208ZM7.34831 75.1448H10.4083L10.1822 76.3076H7.1223L7.34831 75.1448ZM9.23167 69.6634L11.1373 69.871C10.6844 70.6046 10.2169 71.2691 9.85745 71.7397L8.32656 71.4905C8.62891 70.9507 9.01392 70.2032 9.23167 69.6634ZM7.15357 71.2137H11.2429L10.9981 72.4733H8.41755L7.37897 77.8163H5.87015L7.15357 71.2137ZM10.7212 71.2137H12.2723L10.3727 80.9862C10.2301 81.7198 10.0084 82.1351 9.4946 82.3842C8.96404 82.6472 8.31001 82.6749 7.35113 82.6749C7.37545 82.2596 7.26757 81.5814 7.1287 81.2076C7.70146 81.2353 8.3105 81.2215 8.50792 81.2215C8.70802 81.2076 8.78929 81.1523 8.82696 80.9585L10.7212 71.2137ZM4.80868 77.4011C6.0711 77.2904 7.92512 77.1104 9.72812 76.9028L9.52354 78.2455C7.84207 78.4808 6.09547 78.6884 4.73768 78.8545L4.80868 77.4011ZM10.7299 75.1587L12.164 75.6155C10.3031 78.37 7.64999 80.5571 4.88169 81.8859C4.71796 81.5675 4.28909 80.9447 4.00717 80.654C6.6928 79.5328 9.14505 77.581 10.7299 75.1587ZM12.3254 72.9716H18.9388L18.6402 74.5081H12.0267L12.3254 72.9716ZM16.5172 69.7603H18.1952L16.0535 80.7785C15.8867 81.6368 15.6173 82.0797 15.0303 82.3427C14.4407 82.6195 13.6516 82.6887 12.498 82.6749C12.5136 82.232 12.3487 81.4845 12.1924 81.0554C12.9599 81.0969 13.724 81.0831 13.9779 81.0831C14.2344 81.0692 14.3324 81 14.3782 80.7647L16.5172 69.7603ZM12.1289 76.0861L13.6467 75.5324C14.0647 76.5014 14.398 77.761 14.4004 78.6192L12.7423 79.2421C12.7627 78.4116 12.4966 77.0966 12.1289 76.0861ZM14.0714 84.374L15.0319 85.7443C11.9844 86.4779 7.85604 86.824 4.37974 86.9347C4.41815 86.5195 4.33848 85.8412 4.25332 85.4813C7.6786 85.3429 11.6405 84.983 14.0714 84.374ZM3.83134 88.3051H14.9853L14.6759 89.8969H3.52192L3.83134 88.3051ZM2.23145 91.5303H15.1904L14.8756 93.1498H1.91665L2.23145 91.5303ZM8.85537 86.3257H10.618L8.85027 95.4199C8.65924 96.4027 8.31932 96.8456 7.59403 97.0948C6.86606 97.3578 5.8286 97.3993 4.39298 97.3855C4.37165 96.9148 4.19262 96.1674 4.02221 95.7383C5.05762 95.7798 6.24481 95.766 6.56913 95.766C6.89346 95.766 7.0392 95.6691 7.09301 95.3922L8.85537 86.3257Z" fill="#FFF7E4"/>
<line x1="20.0222" y1="35.7782" x2="14.3024" y2="65.204" stroke="#FFF7E4" stroke-opacity="0.52" stroke-width="1.26259" stroke-dasharray="2.53 2.53"/>
</svg>
