<svg width="30" height="23" viewBox="0 0 30 23" fill="none" xmlns="http://www.w3.org/2000/svg">
<path fill-rule="evenodd" clip-rule="evenodd" d="M26.7289 0.700282C27.0841 0.568339 27.4535 0.522833 27.7986 0.5685C28.1436 0.614166 28.4517 0.749335 28.6909 0.959938C28.93 1.17054 29.0914 1.44888 29.1582 1.76598C29.2251 2.08308 29.195 2.42736 29.071 2.76297L22.6173 20.2146C21.9932 21.898 19.8632 22.8634 18.4064 22.0249C17.1878 21.3234 15.3856 20.2425 13.7951 19.1148C13 18.5503 10.5798 16.7426 11.1738 15.4562C11.6832 14.3564 17.1597 10.2234 20.3079 7.7662C21.5438 6.80082 21.1762 6.24392 19.7664 7.13191C16.2654 9.33668 10.6811 12.6895 8.8672 13.6333C7.26711 14.4655 6.4903 14.6076 5.62278 14.4655C4.03998 14.2067 2.60373 13.8058 1.46318 13.3174C-0.0781044 12.6578 0.433205 10.4708 2.14679 9.83396L26.7289 0.700282Z" fill="#F2F2F2"/>
</svg>
