<svg width="1607" height="303" viewBox="0 0 1607 303" fill="none" xmlns="http://www.w3.org/2000/svg">
<path d="M59.7898 15.4802L63.533 11.6212C69.0614 13.2876 76.1506 16.5766 79.598 19.2954L75.4483 23.6369C72.3136 20.918 65.4095 17.3659 59.7898 15.4802ZM59.6231 5.30641H90.5818L89.6441 10.1302H58.6854L59.6231 5.30641ZM88.8395 5.30641H94.2897C94.2897 5.30641 93.9637 6.75355 93.7465 7.41134C91.0283 18.6376 89.5249 23.1545 87.8693 24.777C86.701 25.961 85.5882 26.3996 84.1607 26.6188C82.8758 26.7942 80.8208 26.7942 78.6488 26.7065C78.8493 25.2156 78.7139 23.1545 78.1293 21.795C79.8907 21.9266 81.4457 21.9704 82.3031 21.9266C82.9646 21.9704 83.3837 21.8827 83.9328 21.3565C84.9159 20.4356 86.2638 16.4889 88.6776 6.13961L88.8395 5.30641ZM72.0267 7.4552H78.0129C75.0658 16.1819 70.7808 24.2069 56.0881 28.5484C55.8163 27.1889 54.8235 25.1717 53.8304 24.0754C66.9231 20.611 69.7652 14.0331 72.0267 7.4552ZM63.0078 29.9516H68.3239L66.8151 37.7136C66.5594 39.0292 66.8742 39.2484 69.0632 39.2484C70.046 39.2484 74.156 39.2484 75.4515 39.2484C77.3278 39.2484 77.7152 38.6345 78.793 34.4685C79.7117 35.2578 81.792 36.0472 83.1619 36.3541C81.3601 42.4058 79.6407 43.8968 74.9947 43.8968C73.7438 43.8968 68.6957 43.8968 67.5789 43.8968C61.7266 43.8968 60.5784 42.4497 61.4819 37.8013L63.0078 29.9516ZM66.6399 27.5836L70.8807 24.3823C73.5393 25.8733 76.6891 28.2852 78.0116 30.2148L73.4431 33.723C72.2992 31.7935 69.2729 29.2061 66.6399 27.5836ZM80.8704 31.1357L85.7087 28.7676C88.3476 31.9689 90.935 36.3541 91.6359 39.6431L86.2912 42.3181C85.7967 39.1169 83.4305 34.5123 80.8704 31.1357ZM57.0577 29.9955L61.5841 31.5303C59.6404 35.7841 57.0798 39.9939 53.2455 42.7128L49.3492 39.7747C52.7324 37.5382 55.3694 33.8545 57.0577 29.9955ZM45.6704 64.6763H85.8765L84.973 69.3247H44.7668L45.6704 64.6763ZM51.2191 56.125H76.7724L75.8859 60.6857H50.3326L51.2191 56.125ZM54.4446 79.9809H74.4136L73.6465 83.9276H53.6774L54.4446 79.9809ZM53.1063 86.8658H73.0753L72.2144 91.2949H52.2454L53.1063 86.8658ZM62.6827 51.3889H67.9542L64.8684 67.2636H59.597L62.6827 51.3889ZM82.0918 52.6606L86.2414 54.9848C75.1583 66.9566 59.8196 75.771 44.331 80.9895C43.9272 79.8493 42.7452 77.6567 41.9669 76.6042C57.3723 72.0436 72.1344 63.6677 82.0918 52.6606ZM52.8409 72.8329H79.1982L75.388 92.4351H69.8038L72.7787 77.1305H57.3663L54.3573 92.6105H48.9965L52.8409 72.8329Z" fill="#F2F2F2"/>
<path d="M669.942 154.047L692.173 60.9104H696.435L682.428 154.77L735.614 157.81L757.271 4.73438H652.621L616.482 150.957L669.942 154.047Z" fill="#F2F2F2"/>
<path d="M338.893 134.956L364.19 4.73438H306.767L282.094 131.691L338.893 134.956Z" fill="#F2F2F2"/>
<path d="M601.106 150.084L629.219 4.73438H571.797L544.133 146.794L601.106 150.084Z" fill="#F2F2F2"/>
<path d="M403.692 138.695L418.646 61.7578H422.907L412.24 139.193L459.37 141.91L478.635 4.73438H374.408L348.986 135.554L403.692 138.695Z" fill="#F2F2F2"/>
<path d="M524.019 145.623L551.384 4.73438H496.081L469.264 142.483L524.019 145.623Z" fill="#F2F2F2"/>
<path d="M865.261 165.294L967.046 171.15C970.71 152.234 963.482 141.692 948.678 134.489L911.244 116.196L921.886 59.6208H932.104L922.31 110.239H978.885L988.256 61.7392C995.907 23.0341 972.928 1.75 938.061 1.75C903.194 1.75 872.539 23.0341 864.888 61.7392L850.856 134.065C847.342 151.985 854.57 159.561 865.261 165.269V165.294Z" fill="#F2F2F2"/>
<path d="M1304.51 190.59C1333.22 185.032 1358.56 162.452 1365.17 129.405L1377.08 67.297C1384.73 29.0155 1360.91 4.76562 1326.89 4.76562H1264.36L1229.09 186.279L1304.51 190.615V190.59ZM1310.74 61.7641H1320.96L1306.92 134.938H1296.71L1310.74 61.7641Z" fill="#F2F2F2"/>
<path d="M1419.72 197.238L1422.61 182.584H1448.13L1459.2 125.984H1433.65L1445.99 62.1815H1471.54L1482.58 4.73438H1399.63L1362.87 193.948L1419.72 197.238Z" fill="#F2F2F2"/>
<path d="M272.027 131.118L296.576 4.73438H241.272L217.271 127.953L272.027 131.118Z" fill="#F2F2F2"/>
<path d="M1031.8 174.883L1053.78 61.7578H1058.04L1042.36 175.506L1089.42 178.197L1113.77 4.73438H1009.54L977.092 171.742L1031.8 174.883Z" fill="#F2F2F2"/>
<path d="M1511.79 202.535L1514.93 186.41H1525.15L1521.91 203.133L1578.83 206.423L1582.15 189.4C1584.26 177.063 1583.42 165.15 1580.03 156.228C1587.25 147.729 1592.36 134.096 1594.48 123.903L1605.55 67.3282C1613.2 29.0468 1589.37 4.79688 1555.35 4.79688H1492.82L1455.04 199.32L1511.81 202.584L1511.79 202.535ZM1539.18 61.7455H1549.4L1536.21 129.386H1525.99L1539.18 61.7455Z" fill="#F2F2F2"/>
<path d="M1152.1 181.811L1186.52 4.73438H1131.21L1097.34 178.671L1152.1 181.811Z" fill="#F2F2F2"/>
<path d="M1219 185.674L1254.14 4.73438H1196.72L1162.2 182.409L1219 185.674Z" fill="#F2F2F2"/>
<path d="M1100.86 183.71L1088.97 244.746H1084.71L1093.33 183.336L1046.25 180.844L1029.83 300.075H1133.63L1155.69 186.626L1100.86 183.71Z" fill="#F2F2F2"/>
<path d="M1232.73 190.672L1211.47 300.058H1268.91L1289.77 193.712L1232.73 190.672Z" fill="#F2F2F2"/>
<path d="M1165.78 187.156L1143.82 300.082H1201.27L1222.63 190.172L1165.78 187.156Z" fill="#F2F2F2"/>
<path d="M980.504 177.359L956.652 300.079H1011.96L1035.26 180.25L980.504 177.359Z" fill="#F2F2F2"/>
<path d="M1415.26 242.617L1423.51 200.772L1366.64 197.781L1346.75 300.065H1429.72L1440.78 242.617H1415.26Z" fill="#F2F2F2"/>
<path d="M1525.79 206.211L1507.55 300.07H1564.99L1582.76 209.202L1525.79 206.211Z" fill="#F2F2F2"/>
<path d="M970.464 176.841L889.315 172.555L912.444 184.368L900.531 244.781H890.312L900.954 190.748H844.38L834.161 242.663C826.934 281.368 849.912 302.652 884.356 302.652C918.799 302.652 950.302 281.368 957.529 242.663L970.464 176.866V176.841Z" fill="#F2F2F2"/>
<path d="M1458.85 202.648L1439.91 300.072H1497.36L1515.68 205.664L1458.85 202.648Z" fill="#F2F2F2"/>
<path d="M604.173 157.445L547.149 154.43L530.401 240.513H520.183L508.693 300.079H513.803C550.813 300.079 581.019 275.829 588.671 237.547L604.173 157.47V157.445Z" fill="#F2F2F2"/>
<path d="M284.883 140.547L253.879 300.078H311.326L341.732 143.563L284.883 140.547Z" fill="#F2F2F2"/>
<path d="M219.985 137.127L199.025 244.743H194.763L209.941 136.578L162.762 134.086L139.883 300.072H243.686L274.79 140.018L219.985 137.127Z" fill="#F2F2F2"/>
<path d="M99.6091 130.734L66.7109 300.06H122.015L154.365 133.625L99.6091 130.734Z" fill="#F2F2F2"/>
<path d="M151.7 124.189L163.837 61.7578H168.099L159.426 124.638L206.605 127.355L223.826 4.73438H119.599L96.9941 121.024L151.7 124.189Z" fill="#F2F2F2"/>
<path d="M685.994 161.773L684.399 172.44H669.944L672.66 161.051L619.051 158.234L584.01 300.07H639.314L656.336 229.015H676.324L665.682 300.07H720.138L739.304 164.59L685.994 161.773Z" fill="#F2F2F2"/>
<path d="M351.83 144.086L321.523 300.078H376.827L406.585 147.002L351.83 144.086Z" fill="#F2F2F2"/>
<path d="M472.203 150.467L453.835 244.75H449.573L462.882 149.969L415.728 147.477L394.693 300.079H498.497L527.009 153.358L472.203 150.467Z" fill="#F2F2F2"/>
<path d="M24.621 218.406H34.3152L33.5991 222.09H23.905L24.621 218.406ZM23.4362 224.502H33.1303L32.4143 228.185H22.7201L23.4362 224.502ZM29.4028 207.136L35.4399 207.794C34.0053 210.118 32.5239 212.223 31.3853 213.714L26.5353 212.925C27.4932 211.214 28.7129 208.846 29.4028 207.136ZM22.8192 212.047H35.7745L34.9988 216.038H26.8236L23.5333 232.965H18.7532L22.8192 212.047ZM34.1216 212.047H39.0357L33.0177 243.007C32.5659 245.332 31.8634 246.647 30.2358 247.437C28.5549 248.27 26.4829 248.358 23.4451 248.358C23.5221 247.042 23.1804 244.893 22.7404 243.709C24.555 243.797 26.4844 243.753 27.1099 243.753C27.7438 243.709 28.0013 243.534 28.1206 242.92L34.1216 212.047ZM15.3904 231.65C19.3898 231.299 25.2635 230.729 30.9756 230.071L30.3274 234.325C25.0004 235.07 19.467 235.728 15.1654 236.254L15.3904 231.65ZM34.1493 224.545L38.6927 225.993C32.7971 234.719 24.3919 241.648 15.6217 245.858C15.103 244.849 13.7443 242.876 12.8511 241.955C21.3594 238.403 29.1284 232.22 34.1493 224.545ZM39.204 217.617H60.1559L59.2097 222.484H38.2578L39.204 217.617ZM52.484 207.443H57.8001L51.0149 242.35C50.4864 245.069 49.6329 246.472 47.7734 247.305C45.9053 248.182 43.4056 248.401 39.7509 248.358C39.8003 246.954 39.2778 244.586 38.7826 243.227C41.2141 243.358 43.635 243.314 44.4391 243.314C45.2517 243.271 45.5624 243.051 45.7073 242.306L52.484 207.443ZM38.5816 227.484L43.3899 225.73C44.7142 228.799 45.7701 232.79 45.7777 235.509L40.5247 237.482C40.5894 234.851 39.7463 230.685 38.5816 227.484ZM44.4534 255.192L47.4961 259.533C37.8416 261.857 24.7625 262.954 13.7493 263.305C13.871 261.989 13.6186 259.84 13.3488 258.7C24.2004 258.262 36.7519 257.121 44.4534 255.192ZM12.0119 267.646H47.3487L46.3684 272.689H11.0317L12.0119 267.646ZM6.94335 277.864H47.9983L47.001 282.994H5.94603L6.94335 277.864ZM27.9285 261.375H33.5127L27.9123 290.186C27.3071 293.3 26.2302 294.703 23.9325 295.492C21.6262 296.326 18.3394 296.457 13.7913 296.413C13.7237 294.922 13.1565 292.554 12.6166 291.195C15.8969 291.326 19.658 291.283 20.6855 291.283C21.713 291.283 22.1747 290.976 22.3452 290.099L27.9285 261.375Z" fill="#F2F2F2"/>
<line x1="60.9769" y1="106.382" x2="43.9638" y2="193.906" stroke="white" stroke-opacity="0.28" stroke-width="4" stroke-dasharray="8 8"/>
</svg>
