<svg width="32" height="25" viewBox="0 0 32 25" fill="none" xmlns="http://www.w3.org/2000/svg">
<g clip-path="url(#clip0_577_2661)">
<mask id="mask0_577_2661" style="mask-type:luminance" maskUnits="userSpaceOnUse" x="0" y="-1" width="32" height="26">
<path d="M31.2782 -0.00317383H5.56042L0.722261 24.887H26.4401L31.2782 -0.00317383Z" fill="white"/>
</mask>
<g mask="url(#mask0_577_2661)">
<path d="M9.15801 11.938C9.18371 11.806 9.2357 11.6753 9.31104 11.5534C9.38636 11.4315 9.48353 11.3208 9.59696 11.2276C9.71039 11.1345 9.83785 11.0608 9.97202 11.0107C10.1062 10.9606 10.2444 10.9351 10.3788 10.9358L12.0788 10.9412C12.35 10.9412 12.5895 11.047 12.7447 11.2352C12.8999 11.4234 12.958 11.6788 12.9062 11.945L11.679 18.2586C11.8813 18.2029 12.1388 18.1433 12.42 18.0811C12.6153 18.0381 12.8021 17.9342 12.9501 17.7865C13.0981 17.6387 13.1985 17.4558 13.2351 17.2673L14.7574 9.43547C14.8092 9.16923 14.9666 8.91389 15.1949 8.7256C15.4233 8.53733 15.704 8.43153 15.9752 8.43147H17.6796C17.9508 8.43153 18.1903 8.53733 18.3455 8.7256C18.5007 8.91389 18.5588 9.16923 18.507 9.43547L17.0941 16.7041C17.0941 16.7041 17.5538 16.5347 18.003 16.3625C18.1698 16.2983 18.3224 16.191 18.4418 16.0538C18.5611 15.9167 18.6419 15.7559 18.6741 15.5913L20.3584 6.92596C20.4102 6.65976 20.5675 6.40447 20.7958 6.21623C21.0241 6.02798 21.3047 5.92221 21.5759 5.92214H23.2804C23.5515 5.92214 23.7912 6.02791 23.9462 6.21615C24.1014 6.40441 24.1596 6.65973 24.1079 6.92596L22.7208 14.0617C24.4028 13.0104 26.1459 11.7461 27.6298 10.2259C27.8451 10.0052 28.0096 9.74606 28.1084 9.4716C28.2073 9.19714 28.2376 8.91586 28.1968 8.65289C27.9487 7.09931 27.3511 5.67556 26.4421 4.47275C25.5332 3.26993 24.3328 2.31454 22.9181 1.66771C21.5033 1.02089 19.9052 0.696878 18.226 0.716409C16.5468 0.73594 14.8235 1.09859 13.1664 1.78114C11.5093 2.46369 9.95489 3.45112 8.60263 4.68024C7.25037 5.90935 6.13004 7.35309 5.31334 8.91904C4.49663 10.485 4.00155 12.1387 3.85976 13.7743C3.71797 15.4099 3.9326 16.9915 4.48991 18.4177C4.58748 18.6637 4.76244 18.8638 4.99425 18.9947C5.22609 19.1256 5.50514 19.1816 5.79864 19.1563C6.12643 19.1285 6.53551 19.089 7.02342 19.0341C7.23567 19.0109 7.44641 18.9135 7.61548 18.7605C7.78453 18.6075 7.90011 18.4095 7.94017 18.2043L9.15822 11.938" fill="#0A0B0D"/>
<path d="M9.15801 11.938C9.18371 11.806 9.2357 11.6753 9.31104 11.5534C9.38636 11.4315 9.48353 11.3208 9.59696 11.2276C9.71039 11.1345 9.83785 11.0608 9.97202 11.0107C10.1062 10.9606 10.2444 10.9351 10.3788 10.9358L12.0788 10.9412C12.35 10.9412 12.5895 11.047 12.7447 11.2352C12.8999 11.4234 12.958 11.6788 12.9062 11.945L11.679 18.2586C11.8813 18.2029 12.1388 18.1433 12.42 18.0811C12.6153 18.0381 12.8021 17.9342 12.9501 17.7865C13.0981 17.6387 13.1985 17.4558 13.2351 17.2673L14.7574 9.43547C14.8092 9.16923 14.9666 8.91389 15.1949 8.7256C15.4233 8.53733 15.704 8.43153 15.9752 8.43147H17.6796C17.9508 8.43153 18.1903 8.53733 18.3455 8.7256C18.5007 8.91389 18.5588 9.16923 18.507 9.43547L17.0941 16.7041C17.0941 16.7041 17.5538 16.5347 18.003 16.3625C18.1698 16.2983 18.3224 16.191 18.4418 16.0538C18.5611 15.9167 18.6419 15.7559 18.6741 15.5913L20.3584 6.92596C20.4102 6.65976 20.5675 6.40447 20.7958 6.21623C21.0241 6.02798 21.3047 5.92221 21.5759 5.92214H23.2804C23.5515 5.92214 23.7912 6.02791 23.9462 6.21615C24.1014 6.40441 24.1596 6.65973 24.1079 6.92596L22.7208 14.0617C24.4028 13.0104 26.1459 11.7461 27.6298 10.2259C27.8451 10.0052 28.0096 9.74606 28.1084 9.4716C28.2073 9.19714 28.2376 8.91586 28.1968 8.65289C27.9487 7.09931 27.3511 5.67556 26.4421 4.47275C25.5332 3.26993 24.3328 2.31454 22.9181 1.66771C21.5033 1.02089 19.9052 0.696878 18.226 0.716409C16.5468 0.73594 14.8235 1.09859 13.1664 1.78114C11.5093 2.46369 9.95489 3.45112 8.60263 4.68024C7.25037 5.90935 6.13004 7.35309 5.31334 8.91904C4.49663 10.485 4.00155 12.1387 3.85976 13.7743C3.71797 15.4099 3.9326 16.9915 4.48991 18.4177C4.58748 18.6637 4.76244 18.8638 4.99425 18.9947C5.22609 19.1256 5.50514 19.1816 5.79864 19.1563C6.12643 19.1285 6.53551 19.089 7.02342 19.0341C7.23567 19.0109 7.44641 18.9135 7.61548 18.7605C7.78453 18.6075 7.90011 18.4095 7.94017 18.2043L9.15822 11.938" stroke="white"/>
<path d="M7.15145 22.0631C8.69861 23.3461 10.6721 24.1162 12.8534 24.2881C15.0347 24.4601 17.3389 24.0273 19.511 23.0376C21.6831 22.0478 23.6385 20.5397 25.1607 18.6801C26.6828 16.8206 27.7125 14.682 28.1358 12.5012C28.1887 12.229 28.2282 11.9598 28.2618 11.6921C22.6098 18.1337 13.9005 21.1452 7.15207 22.062" fill="white"/>
</g>
</g>
<defs>
<clipPath id="clip0_577_2661">
<rect width="25.476" height="25.3561" fill="white" transform="matrix(1 0 -0.190809 0.981627 5.68103 -0.00317383)"/>
</clipPath>
</defs>
</svg>
