<svg width="36" height="25" viewBox="0 0 36 25" fill="none" xmlns="http://www.w3.org/2000/svg">
<g clip-path="url(#clip0_577_2671)">
<path fill-rule="evenodd" clip-rule="evenodd" d="M28.3859 9.9762C28.5394 10.9594 28.4794 12 28.2094 13.0376C27.9393 14.0752 27.4647 15.0891 26.8129 16.0206C26.1612 16.9521 25.3454 17.7825 24.4127 18.4637C23.4801 19.145 22.4492 19.6634 21.38 19.989C20.3108 20.3146 19.2244 20.4409 18.184 20.3605C17.1436 20.2801 16.1698 19.9946 15.3191 19.5207C14.4685 19.0467 13.7579 18.3937 13.2286 17.5995C12.6994 16.8053 12.362 15.8857 12.2359 14.8942C11.9857 12.9246 12.5834 10.7895 13.8998 8.9513C15.2162 7.11307 17.1452 5.71971 19.269 5.07297C21.3928 4.42622 23.5405 4.57817 25.2469 5.49591C26.9533 6.41364 28.081 8.02327 28.3859 9.9762ZM26.209 12.872C26.4174 12.1005 26.4712 11.3252 26.3672 10.5905C26.2633 9.85572 26.0036 9.17589 25.6031 8.58978C25.2026 8.00367 24.6691 7.52276 24.033 7.17451C23.3969 6.82627 22.6707 6.6175 21.8959 6.56014C21.1211 6.50277 20.3128 6.59793 19.5172 6.84018C18.7217 7.08243 17.9543 7.46703 17.2591 7.97201C16.5639 8.477 15.9543 9.09248 15.4653 9.78332C14.9762 10.4742 14.6172 11.2268 14.4088 11.9984C13.9879 13.5565 14.2059 15.0969 15.0148 16.2806C15.8236 17.4643 17.1571 18.1944 18.7219 18.3102C20.2867 18.4261 21.9546 17.9182 23.3587 16.8983C24.7628 15.8785 25.7881 14.4302 26.209 12.872Z" fill="#F2F2F2"/>
<path fill-rule="evenodd" clip-rule="evenodd" d="M19.9284 14.4028C20.4589 14.4028 21.0078 14.196 21.4544 13.8278C21.9011 13.4596 22.2088 12.9603 22.31 12.4396C22.4113 11.9189 22.2976 11.4195 21.9941 11.0513C21.6906 10.6832 21.2221 10.4763 20.6917 10.4763C20.1612 10.4763 19.6123 10.6832 19.1657 11.0513C18.719 11.4195 18.4113 11.9189 18.31 12.4396C18.2088 12.9603 18.3225 13.4596 18.626 13.8278C18.9295 14.196 19.398 14.4028 19.9284 14.4028ZM19.5468 16.3661C20.6077 16.3661 21.7055 15.9524 22.5988 15.216C23.4921 14.4797 24.1076 13.4809 24.31 12.4396C24.5125 11.3982 24.2852 10.3995 23.6782 9.6631C23.0712 8.92674 22.1342 8.51305 21.0733 8.51305C20.0124 8.51305 18.9146 8.92674 18.0213 9.6631C17.128 10.3995 16.5125 11.3982 16.31 12.4396C16.1076 13.4809 16.3349 14.4797 16.9419 15.216C17.5489 15.9524 18.4859 16.3661 19.5468 16.3661ZM22.2181 2.62329C22.4834 2.62329 22.7176 2.72671 22.8694 2.9108C23.0211 3.09489 23.0779 3.34457 23.0273 3.60492L22.6457 5.56817C22.5951 5.82852 22.4412 6.0782 22.2179 6.26229C21.9946 6.44638 21.7201 6.5498 21.4549 6.5498C21.1897 6.5498 20.9554 6.44638 20.8037 6.26229C20.6519 6.0782 20.5951 5.82852 20.6457 5.56817L21.0273 3.60492C21.0779 3.34457 21.2318 3.09489 21.4551 2.9108C21.6785 2.72671 21.9529 2.62329 22.2181 2.62329ZM19.1652 18.3293C19.4304 18.3293 19.6647 18.4327 19.8164 18.6168C19.9682 18.8009 20.025 19.0506 19.9744 19.311L19.5928 21.2742C19.5422 21.5346 19.3883 21.7842 19.165 21.9683C18.9416 22.1524 18.6672 22.2558 18.402 22.2558C18.1367 22.2558 17.9025 22.1524 17.7507 21.9683C17.599 21.7842 17.5422 21.5346 17.5928 21.2742L17.9744 19.311C18.025 19.0506 18.1789 18.8009 18.4022 18.6168C18.6255 18.4327 18.9 18.3293 19.1652 18.3293ZM30.31 12.4396C30.2594 12.6999 30.1056 12.9496 29.8822 13.1337C29.6589 13.3178 29.3845 13.4212 29.1192 13.4212H27.1192C26.854 13.4212 26.6198 13.3178 26.468 13.1337C26.3163 12.9496 26.2594 12.6999 26.31 12.4396C26.3607 12.1792 26.5145 11.9295 26.7379 11.7454C26.9612 11.5614 27.2356 11.4579 27.5009 11.4579H29.5009C29.7661 11.4579 30.0003 11.5614 30.1521 11.7454C30.3038 11.9295 30.3607 12.1792 30.31 12.4396Z" fill="#F2F2F2"/>
<path d="M13.078 6.20386L13.0778 6.20407C12.6378 6.59449 12.3471 7.10681 12.2464 7.62483C12.1463 8.13999 12.2363 8.6495 12.5207 9.03909L13.4833 10.3955H6.20757C5.64727 10.3955 5.08328 10.6349 4.63993 11.0282C4.19985 11.4187 3.90907 11.9311 3.80836 12.4492C3.70764 12.9673 3.79921 13.4798 4.08751 13.8702C4.37794 14.2635 4.84887 14.5029 5.40917 14.5029H12.6849L11.1897 15.8641L11.1884 15.8653C10.7593 16.2571 10.4777 16.7652 10.3823 17.2775C10.2869 17.7899 10.3796 18.2953 10.6647 18.6814C10.9518 19.0702 11.4155 19.3089 11.9682 19.314C12.5211 19.3192 13.0805 19.0899 13.5248 18.7069L13.532 18.7007L13.5391 18.6945L18.9769 13.8701L18.977 13.87C19.417 13.4796 19.7077 12.9672 19.8084 12.4492C19.909 11.9312 19.8175 11.4189 19.5294 11.0285L19.5293 11.0283L15.967 6.20397L15.9669 6.20386C15.6765 5.81065 15.2056 5.57135 14.6454 5.57135C14.0852 5.57135 13.5213 5.81065 13.078 6.20386ZM14.4546 6.55298C14.7198 6.55298 14.9521 6.66589 15.1006 6.86687L13.3919 8.3828C13.2435 8.18175 13.1912 7.90911 13.2464 7.62483C13.3017 7.34056 13.46 7.06792 13.6866 6.86687C13.9132 6.66589 14.1894 6.55298 14.4546 6.55298Z" fill="#F2F2F2" stroke="#FF280C" stroke-width="2"/>
</g>
<defs>
<clipPath id="clip0_577_2671">
<rect width="30" height="24" fill="white" transform="matrix(1 0 -0.190809 0.981627 5.099 0.662354)"/>
</clipPath>
</defs>
</svg>
