<svg width="725" height="744" viewBox="0 0 725 744" fill="none" xmlns="http://www.w3.org/2000/svg">
<g clip-path="url(#clip0_577_2946)">
<path d="M362.388 375.989C362.388 389.481 373.285 400.372 386.784 400.372C400.283 400.372 411.18 389.481 411.18 375.989C411.18 349.046 389.345 327.224 362.388 327.224C335.43 327.224 313.596 349.046 313.596 375.989C313.596 416.423 346.327 449.137 386.784 449.137C427.24 449.137 459.971 416.423 459.971 375.989C459.971 322.063 416.343 278.459 362.388 278.459C308.432 278.459 264.804 322.063 264.804 375.989C264.804 443.366 319.37 497.902 386.784 497.902C454.198 497.902 508.763 443.366 508.763 375.989C508.763 295.12 443.301 229.693 362.388 229.693C281.475 229.693 216.012 295.12 216.012 375.989C216.012 470.309 292.412 546.667 386.784 546.667C481.155 546.667 557.555 470.309 557.555 375.989C557.555 268.177 470.258 180.928 362.388 180.928C254.517 180.928 167.221 268.177 167.221 375.989C167.221 497.292 265.414 595.432 386.784 595.432C508.153 595.432 606.347 497.292 606.347 375.989C606.347 241.235 497.216 132.163 362.388 132.163C227.56 132.163 118.429 241.235 118.429 375.989C118.429 524.235 238.457 644.197 386.784 644.197C535.111 644.197 655.139 524.235 655.139 375.989C655.139 214.251 524.214 83.398 362.388 83.398C200.562 83.398 69.6369 214.251 69.6369 375.989C69.6369 551.178 211.499 692.962 386.784 692.963C562.068 692.963 703.93 551.178 703.93 375.989C703.93 187.308 551.171 34.6328 362.388 34.6328C173.604 34.6328 20.8451 187.308 20.8451 375.989" stroke="black" stroke-width="43" stroke-linecap="round" stroke-linejoin="round"/>
</g>
<path d="M367.337 62.5942V5.16833C367.337 2.31394 365.023 0 362.169 0C359.315 0 357.001 2.31394 357.001 5.16833V62.5942C357.001 65.4486 359.315 67.7625 362.169 67.7625C365.023 67.7625 367.337 65.4486 367.337 62.5942Z" fill="black"/>
<path d="M367.337 738.641V681.215C367.337 678.361 365.023 676.047 362.169 676.047C359.315 676.047 357.001 678.361 357.001 681.215V738.641C357.001 741.495 359.315 743.809 362.169 743.809C365.023 743.809 367.337 741.495 367.337 738.641Z" fill="black"/>
<path d="M661.477 377.071L718.903 377.071C721.757 377.071 724.071 374.757 724.071 371.903C724.071 369.048 721.757 366.734 718.903 366.734L661.477 366.734C658.623 366.734 656.309 369.048 656.309 371.903C656.309 374.757 658.623 377.071 661.477 377.071Z" fill="black"/>
<path d="M5.42998 377.071L62.8558 377.071C65.7102 377.071 68.0242 374.757 68.0242 371.903C68.0242 369.048 65.7102 366.734 62.8558 366.734L5.42999 366.734C2.57559 366.734 0.261658 369.048 0.261657 371.903C0.261657 374.757 2.5756 377.071 5.42998 377.071Z" fill="black"/>
<path d="M556.019 573.064L596.625 613.67C598.643 615.689 601.916 615.689 603.934 613.67C605.952 611.652 605.952 608.379 603.934 606.361L563.328 565.755C561.309 563.736 558.037 563.736 556.019 565.755C554 567.773 554 571.046 556.019 573.064Z" fill="black"/>
<path d="M120.404 137.447L161.01 178.053C163.028 180.071 166.3 180.071 168.319 178.053C170.337 176.035 170.337 172.762 168.319 170.744L127.713 130.138C125.694 128.119 122.422 128.119 120.404 130.138C118.385 132.156 118.385 135.428 120.404 137.447Z" fill="black"/>
<path d="M563.328 178.054L603.935 137.448C605.953 135.43 605.953 132.157 603.935 130.139C601.916 128.121 598.644 128.121 596.625 130.139L556.019 170.745C554.001 172.764 554.001 176.036 556.019 178.054C558.038 180.073 561.31 180.073 563.328 178.054Z" fill="black"/>
<path d="M127.711 613.671L168.317 573.065C170.336 571.047 170.336 567.774 168.317 565.756C166.299 563.738 163.027 563.738 161.008 565.756L120.402 606.362C118.384 608.381 118.384 611.653 120.402 613.671C122.42 615.69 125.693 615.69 127.711 613.671Z" fill="black"/>
<defs>
<clipPath id="clip0_577_2946">
<rect x="680.001" y="58" width="633" height="635" rx="316.5" transform="rotate(90 680.001 58)" fill="white"/>
</clipPath>
</defs>
</svg>
