<svg width="35" height="25" viewBox="0 0 35 25" fill="none" xmlns="http://www.w3.org/2000/svg">
<g clip-path="url(#clip0_577_3030)">
<path fill-rule="evenodd" clip-rule="evenodd" d="M27.9049 10.1791C28.0584 11.1623 27.9984 12.2029 27.7284 13.2405C27.4584 14.2781 26.9837 15.292 26.332 16.2235C25.6803 17.155 24.8644 17.9854 23.9318 18.6666C22.9991 19.3479 21.9683 19.8663 20.899 20.1919C19.8298 20.5175 18.7435 20.6438 17.703 20.5634C16.6626 20.483 15.6888 20.1975 14.8382 19.7236C13.9875 19.2496 13.277 18.5966 12.7477 17.8024C12.2184 17.0082 11.881 16.0886 11.755 15.097C11.5047 13.1275 12.1025 10.9924 13.4189 9.15418C14.7352 7.31596 16.6642 5.92259 18.788 5.27585C20.9118 4.6291 23.0595 4.78105 24.7659 5.69879C26.4723 6.61652 27.6001 8.22616 27.9049 10.1791ZM25.7281 13.0749C25.9365 12.3034 25.9902 11.5281 25.8863 10.7933C25.7823 10.0586 25.5226 9.37877 25.1221 8.79266C24.7216 8.20655 24.1881 7.72564 23.552 7.37739C22.9159 7.02915 22.1898 6.82038 21.415 6.76302C20.6402 6.70565 19.8319 6.80081 19.0363 7.04306C18.2407 7.28531 17.4734 7.66991 16.7781 8.1749C16.0829 8.67988 15.4734 9.29536 14.9843 9.9862C14.4953 10.677 14.1363 11.4297 13.9279 12.2012C13.507 13.7594 13.7249 15.2998 14.5338 16.4835C15.3427 17.6672 16.6762 18.3972 18.241 18.5131C19.8058 18.6289 21.4737 18.1211 22.8778 17.1012C24.2819 16.0814 25.3072 14.633 25.7281 13.0749Z" fill="#F2F2F2"/>
<path fill-rule="evenodd" clip-rule="evenodd" d="M19.4475 14.6057C19.9779 14.6057 20.5268 14.3989 20.9735 14.0307C21.4201 13.6625 21.7279 13.1631 21.8291 12.6424C21.9303 12.1218 21.8167 11.6224 21.5132 11.2542C21.2096 10.886 20.7411 10.6792 20.2107 10.6792C19.6803 10.6792 19.1314 10.886 18.6847 11.2542C18.2381 11.6224 17.9303 12.1218 17.8291 12.6424C17.7279 13.1631 17.8415 13.6625 18.145 14.0307C18.4485 14.3989 18.917 14.6057 19.4475 14.6057ZM19.0659 16.569C20.1267 16.569 21.2246 16.1553 22.1178 15.4189C23.0111 14.6825 23.6267 13.6838 23.8291 12.6424C24.0315 11.6011 23.8042 10.6023 23.1972 9.86598C22.5902 9.12962 21.6532 8.71594 20.5923 8.71594C19.5315 8.71594 18.4336 9.12962 17.5404 9.86598C16.6471 10.6023 16.0315 11.6011 15.8291 12.6424C15.6267 13.6838 15.854 14.6825 16.461 15.4189C17.068 16.1553 18.005 16.569 19.0659 16.569ZM21.7372 2.82617C22.0024 2.82617 22.2366 2.92959 22.3884 3.11368C22.5402 3.29777 22.597 3.54746 22.5464 3.8078L22.1648 5.77105C22.1141 6.0314 21.9603 6.28108 21.7369 6.46517C21.5136 6.64926 21.2392 6.75268 20.9739 6.75268C20.7087 6.75268 20.4745 6.64926 20.3227 6.46517C20.171 6.28108 20.1141 6.0314 20.1648 5.77105L20.5464 3.8078C20.597 3.54746 20.7509 3.29777 20.9742 3.11368C21.1975 2.92959 21.472 2.82617 21.7372 2.82617ZM18.6842 18.5322C18.9495 18.5322 19.1837 18.6356 19.3355 18.8197C19.4872 19.0038 19.544 19.2535 19.4934 19.5138L19.1118 21.4771C19.0612 21.7374 18.9073 21.9871 18.684 22.1712C18.4607 22.3553 18.1862 22.4587 17.921 22.4587C17.6558 22.4587 17.4215 22.3553 17.2698 22.1712C17.118 21.9871 17.0612 21.7374 17.1118 21.4771L17.4934 19.5138C17.544 19.2535 17.6979 19.0038 17.9212 18.8197C18.1446 18.6356 18.419 18.5322 18.6842 18.5322ZM29.8291 12.6424C29.7785 12.9028 29.6246 13.1525 29.4013 13.3366C29.178 13.5206 28.9035 13.6241 28.6383 13.6241H26.6383C26.3731 13.6241 26.1388 13.5206 25.9871 13.3366C25.8353 13.1525 25.7785 12.9028 25.8291 12.6424C25.8797 12.3821 26.0336 12.1324 26.2569 11.9483C26.4802 11.7642 26.7547 11.6608 27.0199 11.6608H29.0199C29.2851 11.6608 29.5194 11.7642 29.6711 11.9483C29.8229 12.1324 29.8797 12.3821 29.8291 12.6424Z" fill="#F2F2F2"/>
<path d="M12.5971 6.40674L12.5968 6.40696C12.1569 6.79737 11.8662 7.30969 11.7655 7.82771C11.6654 8.34287 11.7553 8.85238 12.0397 9.24197L13.0023 10.5984H5.72661C5.16631 10.5984 4.60232 10.8378 4.15898 11.2311C3.71889 11.6215 3.42811 12.134 3.3274 12.6521C3.22669 13.1702 3.31826 13.6826 3.60655 14.0731C3.89699 14.4664 4.36791 14.7058 4.92821 14.7058H12.2039L10.7088 16.0669L10.7074 16.0682C10.2783 16.46 9.99677 16.9681 9.90134 17.4804C9.8059 17.9928 9.89869 18.4982 10.1838 18.8843L10.9951 18.2635L10.1838 18.8843C10.4709 19.2731 10.9345 19.5118 11.4872 19.5169C12.0401 19.5221 12.5995 19.2928 13.0439 18.9098L13.051 18.9036L13.0581 18.8973L18.4959 14.073L18.4961 14.0729C18.936 13.6824 19.2267 13.1701 19.3274 12.6521C19.4281 12.1341 19.3366 11.6217 19.0484 11.2313L19.0483 11.2312L15.486 6.40685L15.4859 6.40674C15.1955 6.01353 14.7246 5.77423 14.1644 5.77423C13.6043 5.77423 13.0404 6.01353 12.5971 6.40674Z" fill="#F2F2F2" stroke="black" stroke-width="2"/>
</g>
<defs>
<clipPath id="clip0_577_3030">
<rect width="30" height="24" fill="white" transform="matrix(1 0 -0.190809 0.981627 4.61804 0.865234)"/>
</clipPath>
</defs>
</svg>
