<svg width="111" height="29" viewBox="0 0 111 29" fill="none" xmlns="http://www.w3.org/2000/svg">
<path d="M10.6124 8.84521L18.2366 21.6057H2.98807L10.6124 8.84521Z" fill="#FFF7E4"/>
<path d="M23.275 15.3765L17.0214 5.06419L29.5287 5.06419L23.275 15.3765Z" fill="#FFF7E4"/>
<path d="M98.6332 14.1006C98.6332 12.9205 98.8991 11.8816 99.431 10.984C99.9796 10.0864 100.719 9.38829 101.65 8.88962C102.581 8.37434 103.636 8.1167 104.817 8.1167C105.997 8.1167 107.044 8.37434 107.958 8.88962C108.889 9.38829 109.629 10.0864 110.177 10.984C110.726 11.8816 111 12.9205 111 14.1006C111 15.2642 110.726 16.3031 110.177 17.2173C109.629 18.1149 108.889 18.8213 107.958 19.3366C107.044 19.8352 105.997 20.0846 104.817 20.0846C103.636 20.0846 102.581 19.8352 101.65 19.3366C100.719 18.8213 99.9796 18.1149 99.431 17.2173C98.8991 16.3031 98.6332 15.2642 98.6332 14.1006ZM101.401 14.1006C101.401 14.8154 101.55 15.447 101.85 15.9955C102.149 16.5275 102.556 16.9513 103.071 17.2671C103.587 17.5663 104.168 17.7159 104.817 17.7159C105.448 17.7159 106.022 17.5663 106.537 17.2671C107.069 16.9513 107.484 16.5275 107.784 15.9955C108.083 15.447 108.232 14.8154 108.232 14.1006C108.232 13.3859 108.083 12.7542 107.784 12.2057C107.484 11.6572 107.069 11.2333 106.537 10.9341C106.022 10.6349 105.448 10.4853 104.817 10.4853C104.168 10.4853 103.587 10.6349 103.071 10.9341C102.556 11.2333 102.149 11.6572 101.85 12.2057C101.55 12.7542 101.401 13.3859 101.401 14.1006Z" fill="#FFF7E4"/>
<path d="M86.2903 8.36719H89.2324L92.2244 15.7723L95.2163 8.36719H98.1834L92.2244 20.8836L86.2903 8.36719Z" fill="#FFF7E4"/>
<path d="M73.4799 14.1006C73.4799 12.9205 73.7458 11.8816 74.2777 10.984C74.8262 10.0864 75.5659 9.38829 76.4968 8.88962C77.4276 8.37434 78.4831 8.1167 79.6633 8.1167C80.8434 8.1167 81.8906 8.37434 82.8048 8.88962C83.7357 9.38829 84.4753 10.0864 85.0239 10.984C85.5724 11.8816 85.8467 12.9205 85.8467 14.1006C85.8467 15.2642 85.5724 16.3031 85.0239 17.2173C84.4753 18.1149 83.7357 18.8213 82.8048 19.3366C81.8906 19.8352 80.8434 20.0846 79.6633 20.0846C78.4831 20.0846 77.4276 19.8352 76.4968 19.3366C75.5659 18.8213 74.8262 18.1149 74.2777 17.2173C73.7458 16.3031 73.4799 15.2642 73.4799 14.1006ZM76.2474 14.1006C76.2474 14.8154 76.397 15.447 76.6962 15.9955C76.9954 16.5275 77.4027 16.9513 77.9179 17.2671C78.4332 17.5663 79.015 17.7159 79.6633 17.7159C80.2949 17.7159 80.8684 17.5663 81.3836 17.2671C81.9155 16.9513 82.3311 16.5275 82.6303 15.9955C82.9295 15.447 83.0791 14.8154 83.0791 14.1006C83.0791 13.3859 82.9295 12.7542 82.6303 12.2057C82.3311 11.6572 81.9155 11.2333 81.3836 10.9341C80.8684 10.6349 80.2949 10.4853 79.6633 10.4853C79.015 10.4853 78.4332 10.6349 77.9179 10.9341C77.4027 11.2333 76.9954 11.6572 76.6962 12.2057C76.397 12.7542 76.2474 13.3859 76.2474 14.1006Z" fill="#FFF7E4"/>
<path d="M68.1462 12.854C68.1462 12.0063 67.9716 11.3663 67.6226 10.9341C67.2735 10.502 66.7333 10.2859 66.0019 10.2859C65.5033 10.2859 65.0628 10.3939 64.6805 10.61C64.2982 10.8095 63.999 11.1087 63.7829 11.5076C63.5668 11.8899 63.4588 12.3387 63.4588 12.854V19.8352H60.766V8.36603H63.4588V10.1363C63.8244 9.45477 64.2899 8.9478 64.855 8.61536C65.4368 8.28292 66.1266 8.1167 66.9245 8.1167C68.221 8.1167 69.21 8.51563 69.8915 9.31349C70.573 10.0947 70.9138 11.1752 70.9138 12.5548V19.8352H68.1462V12.854Z" fill="#FFF7E4"/>
<path d="M50.713 16.0703C51.0787 16.4693 51.4444 16.8183 51.8101 17.1175C52.1924 17.4001 52.5747 17.6162 52.957 17.7658C53.3393 17.8988 53.7216 17.9653 54.1039 17.9653C54.5859 17.9653 54.9599 17.8572 55.2259 17.6411C55.5085 17.425 55.6497 17.1258 55.6497 16.7435C55.6497 16.4111 55.5417 16.1285 55.3256 15.8958C55.1095 15.6465 54.8103 15.4387 54.428 15.2725C54.0457 15.0896 53.5969 14.9068 53.0816 14.724C52.5664 14.5245 52.0511 14.2918 51.5358 14.0258C51.0371 13.7433 50.6216 13.3776 50.2891 12.9288C49.9733 12.48 49.8154 11.9148 49.8154 11.2333C49.8154 10.5352 49.9899 9.95344 50.339 9.48802C50.7047 9.0226 51.1867 8.68185 51.7851 8.46576C52.4001 8.23305 53.0567 8.1167 53.7548 8.1167C54.3865 8.1167 54.9765 8.20812 55.5251 8.39096C56.0902 8.57381 56.5972 8.81482 57.046 9.11402C57.4948 9.41322 57.8771 9.75397 58.1929 10.1363L56.6969 11.732C56.3146 11.2832 55.8575 10.9175 55.3256 10.6349C54.7937 10.3524 54.2452 10.2111 53.68 10.2111C53.2977 10.2111 52.9819 10.2942 52.7326 10.4604C52.4832 10.6266 52.3586 10.8676 52.3586 11.1835C52.3586 11.4494 52.4666 11.6904 52.6827 11.9065C52.9154 12.106 53.2146 12.2888 53.5803 12.4551C53.9626 12.6213 54.3865 12.7958 54.8519 12.9786C55.4835 13.228 56.0653 13.5022 56.5972 13.8014C57.1291 14.1006 57.553 14.4663 57.8688 14.8985C58.2012 15.3307 58.3674 15.8958 58.3674 16.5939C58.3674 17.6744 57.9935 18.547 57.2455 19.2119C56.5141 19.8602 55.5168 20.1843 54.2535 20.1843C53.4723 20.1843 52.7492 20.0679 52.0843 19.8352C51.4361 19.5859 50.8626 19.2701 50.3639 18.8878C49.8819 18.4889 49.4747 18.0733 49.1422 17.6411L50.713 16.0703Z" fill="#FFF7E4"/>
<path d="M35.2723 14.1006C35.2723 12.9205 35.5383 11.8816 36.0702 10.984C36.6187 10.0864 37.3584 9.38829 38.2892 8.88962C39.2201 8.37434 40.2756 8.1167 41.4557 8.1167C42.6359 8.1167 43.6831 8.37434 44.5973 8.88962C45.5281 9.38829 46.2678 10.0864 46.8163 10.984C47.3649 11.8816 47.6391 12.9205 47.6391 14.1006C47.6391 15.2642 47.3649 16.3031 46.8163 17.2173C46.2678 18.1149 45.5281 18.8213 44.5973 19.3366C43.6831 19.8352 42.6359 20.0846 41.4557 20.0846C40.2756 20.0846 39.2201 19.8352 38.2892 19.3366C37.3584 18.8213 36.6187 18.1149 36.0702 17.2173C35.5383 16.3031 35.2723 15.2642 35.2723 14.1006ZM38.0399 14.1006C38.0399 14.8154 38.1895 15.447 38.4887 15.9955C38.7879 16.5275 39.1951 16.9513 39.7104 17.2671C40.2257 17.5663 40.8075 17.7159 41.4557 17.7159C42.0874 17.7159 42.6608 17.5663 43.1761 17.2671C43.708 16.9513 44.1236 16.5275 44.4228 15.9955C44.722 15.447 44.8716 14.8154 44.8716 14.1006C44.8716 13.3859 44.722 12.7542 44.4228 12.2057C44.1236 11.6572 43.708 11.2333 43.1761 10.9341C42.6608 10.6349 42.0874 10.4853 41.4557 10.4853C40.8075 10.4853 40.2257 10.6349 39.7104 10.9341C39.1951 11.2333 38.7879 11.6572 38.4887 12.2057C38.1895 12.7542 38.0399 13.3859 38.0399 14.1006Z" fill="#FFF7E4"/>
</svg>
