<svg width="1600" height="246" viewBox="0 0 1600 246" fill="none" xmlns="http://www.w3.org/2000/svg">
<path d="M566.232 120.814L583.672 47.7741H587.112L576.122 121.384L619.083 123.854L636.253 2.41406H551.713L523.062 118.334L566.232 120.814Z" fill="#FFEFCC"/>
<path d="M727.162 130.066C726.752 128.196 726.252 126.406 725.622 124.756C731.462 117.886 735.592 106.886 737.302 98.6362L746.232 52.9262C752.422 21.9962 733.172 2.40625 705.682 2.40625H655.162L631.432 124.556L727.162 130.056V130.066ZM692.632 48.4662H700.882L690.232 103.106H681.982L692.632 48.4662Z" fill="#FFEFCC"/>
<path d="M760.303 131.964L806.183 134.604L823.003 47.7741H844.653L853.583 2.41406H764.573L755.643 47.7741H776.603L760.303 131.964Z" fill="#FFEFCC"/>
<path d="M449.632 114.114L495.512 116.754L508.872 47.7741H530.522L539.452 2.41406H450.452L441.512 47.7741H462.472L449.632 114.114Z" fill="#FFEFCC"/>
<path d="M229.232 47.7741L218.942 100.864L264.832 103.494L275.622 47.7741H297.272L306.212 2.41406H217.202L208.262 47.7741H229.232Z" fill="#FFEFCC"/>
<path d="M408.403 111.75C406.323 110.07 403.913 108.57 401.143 107.23L370.903 92.45L379.493 46.74H387.743L379.843 87.64H425.553L433.113 48.46C439.303 17.19 420.743 0 392.563 0C364.383 0 339.643 17.18 333.453 48.46L322.133 106.79L408.413 111.75H408.403Z" fill="#FFEFCC"/>
<path d="M1296.49 162.776L1318.87 48.4662H1327.12L1304.64 163.246L1350.78 165.896L1372.49 52.9262C1378.67 21.9962 1359.43 2.40625 1331.93 2.40625H1281.41L1250.77 160.146L1296.49 162.776Z" fill="#FFEFCC"/>
<path d="M902.243 140.124L910.013 100.354H889.393L899.363 48.8041H919.983L928.913 2.41406H861.903L835.893 136.304L902.243 140.124Z" fill="#FFEFCC"/>
<path d="M169.961 98.0441L179.481 48.8041H200.101L209.041 2.41406H142.021L123.951 95.4041L169.961 98.0441Z" fill="#FFEFCC"/>
<path d="M1494.44 157.404L1491.24 173.964L1537.13 176.604L1540.83 157.404H1559.39L1599.24 2.41406H1554.92L1527.77 113.074H1524.34L1540.48 2.41406H1496.16L1476.22 157.404H1494.44Z" fill="#FFEFCC"/>
<path d="M1460.65 172.206L1484.66 2.40625H1400.12L1359.59 166.396L1460.64 172.206H1460.65ZM1432.09 47.7762H1435.53L1421.78 139.876H1410.1L1432.09 47.7762Z" fill="#FFEFCC"/>
<path d="M1148.65 122.698L1142.55 153.938L1188.48 156.578L1209.47 48.1278H1217.72L1196.64 157.048L1242.46 159.678L1249.68 122.698L1263.43 50.5278C1269.61 19.5978 1250.71 0.0078125 1222.88 0.0078125C1195.05 0.0078125 1168.58 19.5978 1162.39 50.5278L1148.65 122.698Z" fill="#FFEFCC"/>
<path d="M955.982 143.214L974.532 48.4641H982.782L964.142 143.684L1010.21 146.334L1028.15 52.9341C1034.34 22.0041 1015.09 2.41406 987.602 2.41406H937.082L910.242 140.584L955.992 143.214H955.982Z" fill="#FFEFCC"/>
<path d="M1066.65 149.564L1112.54 152.204L1132.77 47.7741H1154.42L1163.35 2.41406H1074.34L1065.41 47.7741H1086.36L1066.65 149.564Z" fill="#FFEFCC"/>
<path d="M1364.15 172.258L1346.68 242.978H1391.35L1405.1 185.588H1421.26L1412.66 242.978H1456.65L1465.88 177.658L1364.15 172.258Z" fill="#FFEFCC"/>
<path d="M968.662 151.245L959.922 195.885H951.672L960.502 150.805L914.722 148.375L896.342 242.965H946.862C974.352 242.965 1001.16 223.375 1007.35 192.445L1014.79 153.685L968.662 151.235V151.245Z" fill="#FFEFCC"/>
<path d="M876.492 196.588L886.302 146.878L840.312 144.438L821.162 242.978H888.182L897.112 196.588H876.492Z" fill="#FFEFCC"/>
<path d="M764.663 140.414L744.803 242.974H791.193L810.583 142.854L764.663 140.414Z" fill="#FFEFCC"/>
<path d="M1071.27 156.695L1054.57 242.975H1100.96L1117.19 159.135L1071.27 156.695Z" fill="#FFEFCC"/>
<path d="M1496.22 179.266L1483.94 242.976H1530.34L1542.14 181.706L1496.22 179.266Z" fill="#FFEFCC"/>
<path d="M1355.64 171.794L1309.44 169.344L1304.24 195.894H1296L1301.28 168.914L1255.53 166.484L1240.67 242.974H1291.19C1318.68 242.974 1345.48 223.384 1351.67 192.454L1355.64 171.794Z" fill="#FFEFCC"/>
<path d="M1247.21 166.044L1201.36 163.614L1194.84 197.274H1186.6L1193.2 163.174L1147.22 160.734L1140.56 194.864C1134.37 225.794 1153.61 245.384 1181.11 245.384C1208.61 245.384 1235.41 225.794 1241.59 194.864L1247.22 166.044H1247.21Z" fill="#FFEFCC"/>
<path d="M61.6226 91.8278L70.0826 48.1278H78.3326L69.6726 92.2978L115.523 94.9278L124.033 50.5378C130.223 19.9378 111.663 0.0078125 83.4826 0.0078125C55.3026 0.0078125 29.1826 19.5978 23.0026 50.5278L15.6426 89.1878L61.6326 91.8278H61.6226Z" fill="#FFEFCC"/>
<path d="M222.862 111.648L197.422 242.978H243.822L268.782 114.088L222.862 111.648Z" fill="#FFEFCC"/>
<path d="M187.201 146.072L194.221 110.132L127.781 106.602L101.281 242.982H168.301L177.231 196.592H156.611L166.581 146.072H187.201Z" fill="#FFEFCC"/>
<path d="M635.682 133.57L614.422 242.98H660.812L679.022 149.16H687.272L669.062 242.98H715.452L733.322 151.57C734.082 147.19 734.342 142.88 734.192 138.81L635.662 133.58L635.682 133.57Z" fill="#FFEFCC"/>
<path d="M111.823 146.069L119.043 108.609H68.5227L60.6227 148.819H64.7427L55.4627 197.279H47.2127L65.4027 103.299L19.4127 100.859L15.2527 122.709L1.16266 194.869C-5.02734 225.799 14.2227 245.389 41.7127 245.389C69.2027 245.389 96.0127 226.139 102.193 194.869L111.813 146.069H111.823Z" fill="#FFEFCC"/>
<path d="M327.632 117.211C328.892 125.611 334.782 129.771 342.192 133.351L373.812 149.501L364.192 198.301H355.942L364.532 154.651H318.822L310.572 196.581C304.732 227.851 323.282 245.041 351.122 245.041C378.962 245.041 404.392 227.861 410.232 196.581L421.912 137.131C423.092 131.231 422.962 126.341 421.692 122.211L327.622 117.211H327.632Z" fill="#FFEFCC"/>
<path d="M580.742 130.649L579.362 139.879H567.682L570.022 130.079L526.732 127.789L498.262 242.979H542.942L556.682 185.589H572.832L564.242 242.979H608.232L623.792 132.939L580.742 130.649Z" fill="#FFEFCC"/>
<path d="M453.732 123.906L430.672 242.976H477.062L499.652 126.346L453.732 123.906Z" fill="#FFEFCC"/>
</svg>
