<svg width="30" height="25" viewBox="0 0 30 25" fill="none" xmlns="http://www.w3.org/2000/svg">
<g clip-path="url(#clip0_577_2650)">
<path d="M12.1185 6.49683C13.7237 6.49683 15.1415 7.12278 16.06 8.23698C16.9785 9.35119 17.3224 10.8624 17.0161 12.4381C16.7098 14.0138 15.7784 15.525 14.4268 16.6392C13.0751 17.7534 11.414 18.3794 9.80878 18.3794C8.20356 18.3794 6.78577 17.7534 5.86729 16.6392C4.94881 15.525 4.60489 14.0138 4.91117 12.4381C5.21746 10.8624 6.14888 9.35119 7.50051 8.23698C8.85215 7.12278 10.5133 6.49683 12.1185 6.49683ZM21.0047 7.48704C22.5178 7.48704 23.0956 9.70412 22.5642 12.4381C22.0328 15.1721 20.5931 17.3891 19.08 17.3891C17.5668 17.3891 16.9891 15.1721 17.5205 12.4381C18.0519 9.70412 19.4916 7.48704 21.0047 7.48704ZM24.9435 7.98214C25.3268 7.98214 25.5025 8.80105 25.3989 10.2062L25.361 10.6448L25.3349 10.8775L25.2701 11.3667L25.2304 11.6231L25.1383 12.1589L25.0861 12.4381L25.0298 12.7173L24.9135 13.253L24.8534 13.5105L24.7282 13.9987L24.6628 14.2314L24.5322 14.67C24.0884 16.0761 23.5955 16.894 23.2112 16.894C22.8279 16.894 22.6521 16.0751 22.7558 14.67L22.7936 14.2314L22.8197 13.9987L22.8845 13.5095L22.9243 13.253L23.0163 12.7173L23.1249 12.1589L23.2411 11.6231L23.3012 11.3657L23.4264 10.8775L23.4918 10.6448L23.6225 10.2062C24.0663 8.80006 24.5591 7.98214 24.9435 7.98214Z" fill="#F2F2F2"/>
</g>
<defs>
<clipPath id="clip0_577_2650">
<rect width="24.2099" height="24.2099" fill="white" transform="matrix(1 0 -0.190809 0.981627 5.20471 0.559326)"/>
</clipPath>
</defs>
</svg>
