<?xml version="1.0" encoding="UTF-8"?>
<svg id="Capa_1" data-name="Capa 1" xmlns="http://www.w3.org/2000/svg" viewBox="0 0 32.93 25.43">
  <defs>
    <style>
      .cls-1 {
        fill: #fff;
      }
    </style>
  </defs>
  <path class="cls-1" d="M28.18,4.75c.32.45.71.93.96,1.39,1.03,1.95.63,3.74.71,5.76s.42,4.08,1.36,6.03c.46.95,1.1,1.86,1.73,2.77l-4.3-2.14h-.15s-3.19,3.27-3.19,3.27c-.11.02-.28-.08-.37-.13-.84-.42-1.67-1.12-2.5-1.55-.13-.07-.47-.27-.62-.24l-5.43,5.52-5.44-5.51-3.48,1.92c-.47-.33-2.96-3.26-3.26-3.26-.39,0-3.54,1.9-4.21,2.09.84-1.24,1.61-2.49,2.11-3.81.62-1.64.82-3.31.89-5,.1-2.43-.45-4.84,1.66-7.02l.3.03,1.92,1.53c-1.75,1.88-.27,3.95,3.01,4.4.28.04,1.21.05,1.26.16-.18.33.09.93-.24,1.17-1.19.49-2.51.87-3.7,1.37-.39.17-.59.19-.09.41,1.09.48,2.6.79,3.65,1.35,1.93,1.03,3.35,3.81,4.11,5.34.43.88.77,2.16,1.32,2.96.25.37.4,0,.52-.2,1.26-2.26,2.4-6.48,5.29-8.07,1.05-.58,2.67-.94,3.85-1.42l.11-.11-.27-.21-3.75-1.37c-.31-.18-.17-.6-.2-.86-.02-.14-.26-.32-.06-.45s.48,0,.68-.02c2.8-.16,4.79-1.59,4.18-3.42-.13-.41-.52-.7-.53-1.08.55-.42,1.12-.82,1.65-1.24.08-.07.32-.43.5-.35Z"/>
  <path class="cls-1" d="M25.57,4.73c-1.56,1.01-3.45,1.97-5.37,2.69-.31.12-1.33.51-1.61.47-.24-.04-.57-.22-.82-.28-.81-.21-1.64-.24-2.48-.07-.35.07-1.07.39-1.31.37-.21-.02-.95-.32-1.2-.41-2.84-1.03-7.86-3.75-8.99-5.74-.05-.09-.06-.17-.05-.26.64.4,1.98,1.2,2.95,1.12.27-.02,1.27-.69,1.59-.85,5.17-2.55,12.14-2.24,17.05.4.25.13.55.43.85.47.5.08,1.78-.46,2.19-.66.06-.03.61-.46.62-.24,0,.04-.44.55-.51.63-.78.86-1.84,1.67-2.93,2.37Z"/>
  <path class="cls-1" d="M21.51,13.75c-3.03,1.05-4.11,3.32-5.04,5.3-.37-.21-.41-.61-.57-.92-.93-1.76-1.75-3.01-4.07-4.19-.14-.07-.5-.12-.5-.27.7-.36,1.89-.41,2-1.07.19-1.1-.17-1.98,1.05-2.97,2.33-1.88,4.89.06,5.12,1.79.05.39-.13,1.12.1,1.43.26.34,1.35.51,1.77.74.09.05.15.08.12.16Z"/>
  <path class="cls-1" d="M12.76,9.14c-2.01.64-5.12.06-4.17-1.71.18-.09,1.08.43,1.3.52.82.35,2,.69,2.72,1.04.09.05.17.06.14.15Z"/>
  <path class="cls-1" d="M20.09,9.04c1.43-.41,2.73-1,3.97-1.6.29-.03.37.48.37.61,0,.89-1.49,1.38-2.71,1.37-.18,0-1.88-.15-1.63-.38Z"/>
</svg>